<?xml version="1.0" encoding="UTF-8"?>
<!DOCTYPE svg PUBLIC "-//W3C//DTD SVG 1.1//EN" "http://www.w3.org/Graphics/SVG/1.1/DTD/svg11.dtd">
<svg xmlns="http://www.w3.org/2000/svg" version="1.1" width="1650px" height="750px" style="shape-rendering:geometricPrecision; text-rendering:geometricPrecision; image-rendering:optimizeQuality; fill-rule:evenodd; clip-rule:evenodd" xmlns:xlink="http://www.w3.org/1999/xlink">
<g><path style="opacity:0.292" fill="#000000" d="M 494.5,12.5 C 534.501,12.3333 574.501,12.5 614.5,13C 659.747,13.2502 681.581,36.0836 680,81.5C 680.729,171.335 680.562,261.169 679.5,351C 679.662,375.174 680.162,399.34 681,423.5C 681.43,429.755 683.597,435.255 687.5,440C 689.275,441.439 691.275,442.439 693.5,443C 703.773,444.566 714.107,444.899 724.5,444C 737.128,441.784 749.795,439.784 762.5,438C 776.793,436.49 789.793,439.823 801.5,448C 807.019,453.551 812.186,459.385 817,465.5C 818.271,453.221 819.271,440.888 820,428.5C 828.515,371.981 859.348,333.148 912.5,312C 924.746,308.204 936.746,303.871 948.5,299C 946.715,297.837 944.715,297.17 942.5,297C 925.837,296.797 909.503,294.463 893.5,290C 872.194,279.411 861.86,262.078 862.5,238C 863.152,222.28 865.319,206.78 869,191.5C 877.155,168.819 893.322,156.319 917.5,154C 960.113,151.66 1002.45,153.993 1044.5,161C 1129.27,179.108 1176.11,231.274 1185,317.5C 1185.89,358.547 1186.89,399.547 1188,440.5C 1189.58,442.041 1191.41,443.208 1193.5,444C 1224.22,449.386 1241.06,467.552 1244,498.5C 1244.67,508.5 1244.67,518.5 1244,528.5C 1240.71,561.459 1222.54,579.292 1189.5,582C 1161.52,583.752 1133.52,584.419 1105.5,584C 1092.45,583.209 1080.79,578.875 1070.5,571C 1068.28,569.869 1065.94,569.036 1063.5,568.5C 1017.38,588.739 969.716,593.239 920.5,582C 890.952,574.818 866.452,559.651 847,536.5C 839.738,525.636 832.738,514.636 826,503.5C 824.81,513.764 823.81,524.097 823,534.5C 819.08,553.758 807.913,566.924 789.5,574C 747.638,586.079 704.971,590.412 661.5,587C 587.114,578.282 544.614,536.782 534,462.5C 531.211,443.272 529.878,423.939 530,404.5C 529.992,322.11 529.325,239.777 528,157.5C 526.352,156.283 524.519,155.45 522.5,155C 507.138,154.837 491.805,154.171 476.5,153C 447.115,148.431 431.282,131.264 429,101.5C 427.917,85.414 428.583,69.414 431,53.5C 436.802,32.0316 450.636,19.1983 472.5,15C 479.981,14.1416 487.314,13.3083 494.5,12.5 Z M 999.5,431.5 C 1008.61,431.057 1017.61,431.557 1026.5,433C 1027.02,433.561 1027.36,434.228 1027.5,435C 1024.96,439.458 1021.3,442.791 1016.5,445C 1002.56,451.137 988.226,452.47 973.5,449C 968.53,446.22 968.196,442.887 972.5,439C 981.149,434.779 990.149,432.279 999.5,431.5 Z"/></g>
<g><path style="opacity:0.289" fill="#000000" d="M 125.5,38.5 C 161.835,38.3333 198.168,38.5 234.5,39C 272.031,38.6463 308.364,44.9796 343.5,58C 408.394,86.961 443.894,137.128 450,208.5C 453.316,245.326 449.316,281.326 438,316.5C 417.778,371.721 379.612,408.221 323.5,426C 290.186,435.517 256.186,439.85 221.5,439C 217.713,439.16 214.046,439.826 210.5,441C 209.299,441.903 208.465,443.069 208,444.5C 207.808,472.847 207.141,501.18 206,529.5C 202.963,560.203 186.13,577.37 155.5,581C 137.794,582.997 120.127,582.664 102.5,580C 75.9769,574.14 61.4769,557.64 59,530.5C 58.6667,524.5 58.3333,518.5 58,512.5C 57.0297,371.823 57.3631,231.156 59,90.5C 60.7702,65.4217 73.6036,49.255 97.5,42C 106.912,40.2697 116.245,39.1031 125.5,38.5 Z M 221.5,181.5 C 236.643,181.691 251.643,183.191 266.5,186C 287.453,191.386 298.953,204.886 301,226.5C 302.488,242.727 299.488,258.06 292,272.5C 285.485,281.34 276.985,287.507 266.5,291C 248.736,295.202 230.736,296.535 212.5,295C 211.069,294.535 209.903,293.701 209,292.5C 207.347,257.585 207.014,222.585 208,187.5C 208.833,185.333 210.333,183.833 212.5,183C 215.695,182.819 218.695,182.319 221.5,181.5 Z"/></g>
<g><path style="opacity:1" fill="#fdfdfd" d="M 468.5,53.5 C 525.5,53.5 582.5,53.5 639.5,53.5C 639.333,176.167 639.5,298.834 640,421.5C 640.236,436.597 643.569,450.93 650,464.5C 659.811,476.787 672.644,483.621 688.5,485C 705.931,487.206 723.264,486.539 740.5,483C 753.634,480.3 766.634,477.133 779.5,473.5C 781.739,493.843 784.073,514.176 786.5,534.5C 745.222,545.601 703.222,549.768 660.5,547C 614.186,541.022 586.019,515.188 576,469.5C 573.022,455.991 571.356,442.324 571,428.5C 570.5,323.834 570.333,219.167 570.5,114.5C 536.5,114.5 502.5,114.5 468.5,114.5C 468.5,94.1667 468.5,73.8333 468.5,53.5 Z"/></g>
<g><path style="opacity:1" fill="#fefefe" d="M 98.5,79.5 C 151.168,79.3333 203.834,79.5 256.5,80C 366.285,86.7773 417.452,144.944 410,254.5C 402.433,337.068 357.6,384.234 275.5,396C 239.209,398.291 202.876,399.124 166.5,398.5C 166.5,446.167 166.5,493.833 166.5,541.5C 143.833,541.5 121.167,541.5 98.5,541.5C 98.5,387.5 98.5,233.5 98.5,79.5 Z M 221.5,181.5 C 218.695,182.319 215.695,182.819 212.5,183C 210.333,183.833 208.833,185.333 208,187.5C 207.014,222.585 207.347,257.585 209,292.5C 209.903,293.701 211.069,294.535 212.5,295C 230.736,296.535 248.736,295.202 266.5,291C 276.985,287.507 285.485,281.34 292,272.5C 299.488,258.06 302.488,242.727 301,226.5C 298.953,204.886 287.453,191.386 266.5,186C 251.643,183.191 236.643,181.691 221.5,181.5 Z"/></g>
<g><path style="opacity:0.364" fill="#000000" d="M 166.5,141.5 C 197.523,141.09 228.523,141.59 259.5,143C 283.632,144.989 304.465,154.156 322,170.5C 336.015,187.387 342.848,206.887 342.5,229C 344.442,257.974 336.608,283.807 319,306.5C 302.306,323.079 282.14,332.579 258.5,335C 227.858,336.418 197.192,336.918 166.5,336.5C 166.5,271.5 166.5,206.5 166.5,141.5 Z M 221.5,181.5 C 218.695,182.319 215.695,182.819 212.5,183C 210.333,183.833 208.833,185.333 208,187.5C 207.014,222.585 207.347,257.585 209,292.5C 209.903,293.701 211.069,294.535 212.5,295C 230.736,296.535 248.736,295.202 266.5,291C 276.985,287.507 285.485,281.34 292,272.5C 299.488,258.06 302.488,242.727 301,226.5C 298.953,204.886 287.453,191.386 266.5,186C 251.643,183.191 236.643,181.691 221.5,181.5 Z"/></g>
<g><path style="opacity:0.3" fill="#000000" d="M 1266.5,155.5 C 1280.93,155.635 1295.26,156.801 1309.5,159C 1322.39,162.233 1332.89,169.066 1341,179.5C 1346.11,187.393 1350.45,195.726 1354,204.5C 1373.14,254.912 1392.47,305.245 1412,355.5C 1413.29,357.792 1414.96,359.792 1417,361.5C 1420.29,356.65 1422.62,351.316 1424,345.5C 1438.26,295.382 1452.93,245.382 1468,195.5C 1476.73,172.112 1493.56,159.278 1518.5,157C 1539.26,154.904 1559.92,155.571 1580.5,159C 1604.06,165.776 1616.06,181.443 1616.5,206C 1615.8,216.046 1613.96,225.88 1611,235.5C 1578.32,338.212 1545.66,440.879 1513,543.5C 1501.32,577.853 1485.66,610.186 1466,640.5C 1433.15,687.533 1388.32,716.366 1331.5,727C 1307.85,731.435 1284.02,734.268 1260,735.5C 1226.73,736.226 1207.4,720.226 1202,687.5C 1197.78,666.543 1198.78,645.877 1205,625.5C 1214.74,606.799 1230.24,596.299 1251.5,594C 1272.45,591.842 1293.12,588.175 1313.5,583C 1323.22,579.73 1331.72,574.563 1339,567.5C 1339.87,566.127 1340.37,564.627 1340.5,563C 1328.47,538.766 1317.64,513.933 1308,488.5C 1275.86,407.087 1243.53,325.754 1211,244.5C 1205.25,231.579 1201.75,218.079 1200.5,204C 1201.8,180.375 1213.8,165.375 1236.5,159C 1246.58,157.282 1256.58,156.115 1266.5,155.5 Z"/></g>
<g><path style="opacity:1" fill="#fdfdfd" d="M 1145.5,332.5 C 1144.84,381.845 1145.5,430.845 1147.5,479.5C 1165.81,481.747 1184.14,483.747 1202.5,485.5C 1203.49,504.09 1203.82,522.757 1203.5,541.5C 1166.85,542.976 1130.18,543.976 1093.5,544.5C 1092.1,519.186 1091.1,493.853 1090.5,468.5C 1088.17,468.5 1085.83,468.5 1083.5,468.5C 1078.54,506.636 1057.54,531.136 1020.5,542C 996.799,547.308 972.799,548.975 948.5,547C 884.228,536.977 854.395,499.477 859,434.5C 864.34,395.637 884.84,368.137 920.5,352C 941.556,342.903 963.556,337.57 986.5,336C 1006.17,335.333 1025.83,335.333 1045.5,336C 1056.94,336.801 1068.27,338.301 1079.5,340.5C 1085.47,300.236 1069.14,274.403 1030.5,263C 1019.99,260.387 1009.32,258.72 998.5,258C 965.837,256.321 933.17,255.154 900.5,254.5C 902.657,234.269 904.99,214.103 907.5,194C 937.836,193.736 968.169,194.069 998.5,195C 1030.02,196.301 1059.69,204.301 1087.5,219C 1122.25,241.158 1141.42,272.991 1145,314.5C 1145.5,320.491 1145.67,326.491 1145.5,332.5 Z M 999.5,431.5 C 990.149,432.279 981.149,434.779 972.5,439C 968.196,442.887 968.53,446.22 973.5,449C 988.226,452.47 1002.56,451.137 1016.5,445C 1021.3,442.791 1024.96,439.458 1027.5,435C 1027.36,434.228 1027.02,433.561 1026.5,433C 1017.61,431.557 1008.61,431.057 999.5,431.5 Z"/></g>
<g><path style="opacity:1" fill="#fdfdfd" d="M 1235.5,197.5 C 1259.57,196.169 1283.74,196.169 1308,197.5C 1345.47,294.752 1382.64,392.085 1419.5,489.5C 1423.42,490.07 1425.59,488.403 1426,484.5C 1453.61,388.511 1481.11,292.511 1508.5,196.5C 1532.5,196.5 1556.5,196.5 1580.5,196.5C 1545.44,307.528 1510.27,418.528 1475,529.5C 1464.74,560.688 1450.74,590.022 1433,617.5C 1405.86,656.506 1368.69,680.006 1321.5,688C 1295.23,691.715 1268.9,694.882 1242.5,697.5C 1240.8,676.872 1239.8,656.205 1239.5,635.5C 1264.96,632.879 1290.29,629.379 1315.5,625C 1341.63,618.856 1363.46,605.69 1381,585.5C 1391.15,572.036 1399.65,557.536 1406.5,542C 1394.75,542.135 1383.25,541.302 1372,539.5C 1326.77,425.281 1281.27,311.281 1235.5,197.5 Z"/></g>
<g><path style="opacity:0.966" fill="#2c2c2c" d="M 1145.5,332.5 C 1146.17,381.402 1146.84,430.402 1147.5,479.5C 1145.5,430.845 1144.84,381.845 1145.5,332.5 Z"/></g>
<g><path style="opacity:0.402" fill="#010101" d="M 1000.5,390.5 C 1026.91,390.06 1053.25,391.06 1079.5,393.5C 1084.92,448.826 1060.25,481.326 1005.5,491C 987.574,493.658 969.907,492.658 952.5,488C 930.977,478.136 921.477,461.303 924,437.5C 929.1,415.066 942.934,401.233 965.5,396C 977.164,393.255 988.83,391.421 1000.5,390.5 Z M 999.5,431.5 C 990.149,432.279 981.149,434.779 972.5,439C 968.196,442.887 968.53,446.22 973.5,449C 988.226,452.47 1002.56,451.137 1016.5,445C 1021.3,442.791 1024.96,439.458 1027.5,435C 1027.36,434.228 1027.02,433.561 1026.5,433C 1017.61,431.557 1008.61,431.057 999.5,431.5 Z"/></g>
<g><path style="opacity:0.999" fill="#d4d4d4" d="M 1202.5,485.5 C 1203.83,494.475 1204.5,503.809 1204.5,513.5C 1204.5,523.006 1204.17,532.339 1203.5,541.5C 1203.82,522.757 1203.49,504.09 1202.5,485.5 Z"/></g>
</svg>
