<?xml version="1.0" standalone="no"?>
<!DOCTYPE svg PUBLIC "-//W3C//DTD SVG 20010904//EN"
 "http://www.w3.org/TR/2001/REC-SVG-20010904/DTD/svg10.dtd">
<svg version="1.0" xmlns="http://www.w3.org/2000/svg"
 width="150.000000pt" height="150.000000pt" viewBox="0 0 150.000000 150.000000"
 preserveAspectRatio="xMidYMid meet">

<g transform="translate(0.000000,150.000000) scale(0.100000,-0.100000)"
fill="#000000" stroke="none">
<path d="M353 1243 c-17 -9 -38 -30 -46 -47 -57 -116 -53 -833 4 -902 7 -9 30
-25 52 -36 38 -19 55 -20 391 -16 269 2 356 6 374 16 45 26 103 85 118 121 29
70 -9 164 -82 198 -42 20 -42 26 -4 40 91 34 93 208 3 251 -18 9 -33 18 -33
21 0 3 17 15 37 26 69 37 109 136 81 201 -18 41 -66 95 -107 121 -35 22 -41
22 -396 22 -308 0 -365 -3 -392 -16z m788 -99 c67 -68 58 -138 -25 -181 -21
-11 -86 -18 -225 -25 -190 -10 -198 -10 -256 12 -86 31 -123 36 -131 16 -7
-19 21 -56 43 -56 20 0 16 -18 -7 -25 -31 -10 -45 -44 -27 -63 14 -13 22 -13
74 8 32 13 62 27 67 32 18 15 264 9 350 -8 119 -24 156 -52 156 -113 0 -45 -6
-54 -50 -77 -53 -28 -151 -42 -301 -43 -122 -1 -142 1 -199 24 -75 29 -96 31
-104 9 -7 -19 8 -41 35 -49 22 -7 26 -25 6 -25 -21 0 -50 -37 -44 -55 9 -21
28 -19 118 11 l78 27 194 -10 c208 -11 236 -19 277 -70 15 -20 19 -34 14 -57
-8 -40 -58 -93 -103 -107 -44 -15 -688 -4 -707 12 -48 40 -49 798 0 838 18 15
82 18 413 17 l313 -1 41 -41z"/>
</g>
</svg>
