<?xml version="1.0" standalone="no"?>
<!DOCTYPE svg PUBLIC "-//W3C//DTD SVG 20010904//EN"
 "http://www.w3.org/TR/2001/REC-SVG-20010904/DTD/svg10.dtd">
<svg version="1.0" xmlns="http://www.w3.org/2000/svg"
 width="150.000000pt" height="150.000000pt" viewBox="0 0 150.000000 150.000000"
 preserveAspectRatio="xMidYMid meet">

<g transform="translate(0.000000,150.000000) scale(0.100000,-0.100000)"
fill="#000000" stroke="none">
<path d="M360 1388 c-58 -30 -104 -92 -130 -174 -32 -104 -54 -378 -46 -583
12 -339 53 -464 172 -521 140 -68 285 52 302 251 l7 74 77 3 76 3 6 -28 c3
-15 10 -56 15 -89 16 -105 72 -185 153 -218 76 -32 139 -15 204 56 79 85 116
254 116 523 -1 532 -98 764 -298 714 -114 -29 -178 -151 -193 -371 -1 -5 -36
-8 -80 -8 l-78 0 -7 88 c-4 50 -16 106 -27 131 -42 96 -129 170 -199 171 -14
0 -46 -10 -70 -22z m103 -62 c35 -14 80 -67 102 -120 8 -19 18 -73 23 -120 l8
-87 -33 -25 c-18 -14 -41 -36 -49 -50 -15 -22 -15 -26 0 -49 21 -33 41 -32 74
4 42 44 64 51 165 51 l94 0 32 -35 c33 -36 58 -44 79 -23 21 21 13 43 -29 89
l-41 44 6 73 c9 95 39 174 82 218 29 28 42 34 78 34 54 0 86 -24 116 -87 74
-157 98 -622 45 -872 -43 -208 -168 -271 -270 -137 -20 27 -30 57 -42 133 -15
91 -14 98 2 108 65 39 83 75 47 94 -15 8 -31 2 -73 -25 -53 -35 -55 -36 -145
-32 -88 3 -93 4 -139 41 -55 43 -70 45 -86 16 -10 -19 -5 -27 38 -68 l50 -46
-8 -78 c-17 -174 -124 -262 -228 -188 -68 49 -99 178 -107 451 -6 201 12 452
41 546 20 68 53 115 95 136 42 21 34 21 73 4z"/>
<path d="M668 823 c-2 -4 -3 -32 0 -61 5 -67 27 -65 26 2 0 43 -16 79 -26 59z"/>
<path d="M780 765 c0 -37 4 -65 10 -65 6 0 10 28 10 65 0 37 -4 65 -10 65 -6
0 -10 -28 -10 -65z"/>
<path d="M666 621 c-15 -23 83 -42 128 -25 27 11 19 35 -9 28 -36 -9 -67 -9
-92 -1 -12 5 -24 3 -27 -2z"/>
</g>
</svg>
