<?xml version="1.0" encoding="UTF-8"?>
<!DOCTYPE svg PUBLIC "-//W3C//DTD SVG 1.1//EN" "http://www.w3.org/Graphics/SVG/1.1/DTD/svg11.dtd">
<svg xmlns="http://www.w3.org/2000/svg" version="1.1" width="150px" height="150px" style="shape-rendering:geometricPrecision; text-rendering:geometricPrecision; image-rendering:optimizeQuality; fill-rule:evenodd; clip-rule:evenodd" xmlns:xlink="http://www.w3.org/1999/xlink">
<g><path style="opacity:0.94" fill="#000000" d="M 52.5,13.5 C 75.683,12.4871 98.683,13.9871 121.5,18C 131.25,20.4663 136.25,26.7996 136.5,37C 135.432,43.7317 131.766,48.3984 125.5,51C 116.307,53.3933 106.974,54.06 97.5,53C 95.1116,52.6966 92.9449,51.8633 91,50.5C 90.6667,66.5 90.3333,82.5 90,98.5C 90.0114,108.441 87.6781,117.775 83,126.5C 75.9603,133.608 68.4603,133.774 60.5,127C 58.6457,124.457 57.4791,121.624 57,118.5C 56.8176,96.1342 55.9842,73.8009 54.5,51.5C 44.8846,53.8856 35.2179,54.0522 25.5,52C 13.5653,46.5317 10.0653,37.6984 15,25.5C 18.8401,20.9958 23.6734,18.1624 29.5,17C 37.2764,15.5809 44.943,14.4142 52.5,13.5 Z M 52.5,20.5 C 73.9548,19.7359 95.2881,20.9026 116.5,24C 125.153,23.824 129.82,27.9906 130.5,36.5C 130.152,38.6967 129.152,40.53 127.5,42C 116.105,47.4047 104.439,47.9047 92.5,43.5C 91.5279,40.895 89.8612,38.895 87.5,37.5C 86.5224,37.9767 85.6891,38.6433 85,39.5C 83.9872,62.4974 82.9872,85.4974 82,108.5C 81.6257,115.671 78.6257,121.337 73,125.5C 70.26,124.856 67.76,123.689 65.5,122C 64.8095,120.933 64.3095,119.766 64,118.5C 63.6667,104.167 63.3333,89.8333 63,75.5C 62.5782,64.0637 61.5782,52.7304 60,41.5C 56.8601,38.9679 54.6935,39.8013 53.5,44C 43.5118,47.3321 33.5118,47.3321 23.5,44C 17.7369,38.8966 17.0702,33.2299 21.5,27C 24.0891,25.8035 26.7558,24.8035 29.5,24C 37.2793,22.5902 44.946,21.4235 52.5,20.5 Z"/></g>
<g><path style="opacity:0.933" fill="#000000" d="M 43.5,29.5 C 46.1391,30.7058 46.9724,32.7058 46,35.5C 39.4298,41.0333 32.7631,41.3666 26,36.5C 25.2888,34.6332 25.7888,33.1332 27.5,32C 29.783,31.7088 31.9497,32.2088 34,33.5C 37.648,32.9826 40.8146,31.6493 43.5,29.5 Z"/></g>
<g><path style="opacity:0.949" fill="#000000" d="M 115.5,32.5 C 121.795,34.28 122.128,37.1133 116.5,41C 110.859,44.7157 105.692,44.2157 101,39.5C 100.28,37.8876 100.446,36.3876 101.5,35C 104.219,34.4719 106.719,34.9719 109,36.5C 111.924,36.2929 114.09,34.9596 115.5,32.5 Z"/></g>
</svg>
