<?xml version="1.0" encoding="UTF-8"?>
<!DOCTYPE svg PUBLIC "-//W3C//DTD SVG 1.1//EN" "http://www.w3.org/Graphics/SVG/1.1/DTD/svg11.dtd">
<svg xmlns="http://www.w3.org/2000/svg" version="1.1" width="150px" height="150px" style="shape-rendering:geometricPrecision; text-rendering:geometricPrecision; image-rendering:optimizeQuality; fill-rule:evenodd; clip-rule:evenodd" xmlns:xlink="http://www.w3.org/1999/xlink">
<g><path style="opacity:0.923" fill="#000000" d="M 37.5,7.5 C 44.0365,7.43655 49.7032,9.60322 54.5,14C 62.587,21.6777 69.087,30.511 74,40.5C 80.3434,27.156 89.8434,16.656 102.5,9C 111.949,6.35619 120.116,8.52286 127,15.5C 130.545,26.0358 129.211,36.0358 123,45.5C 114.619,56.0457 104.786,65.0457 93.5,72.5C 108.018,81.184 118.851,93.184 126,108.5C 130.1,117.048 130.433,125.714 127,134.5C 116.586,144.51 105.753,145.01 94.5,136C 86.1164,127.616 79.2831,118.116 74,107.5C 68.6721,117.823 62.1721,127.323 54.5,136C 44.1938,144.775 34.0271,144.608 24,135.5C 20.2363,124.529 21.0697,113.862 26.5,103.5C 33.7396,90.926 43.4063,80.5927 55.5,72.5C 40.5608,63.7303 29.7275,51.397 23,35.5C 17.7867,20.5115 22.62,11.1781 37.5,7.5 Z M 37.5,13.5 C 43.4476,14.0563 48.6142,16.3896 53,20.5C 59.4938,28.1476 64.9938,36.4809 69.5,45.5C 63.5708,49.9575 64.2375,52.2909 71.5,52.5C 71.3398,54.1992 71.5065,55.8659 72,57.5C 75.0083,59.0318 76.8417,58.0318 77.5,54.5C 79.9109,53.912 81.9109,52.7454 83.5,51C 82.0699,49.114 80.4032,47.4473 78.5,46C 84.2532,34.2421 92.2532,24.2421 102.5,16C 109.843,12.3338 116.343,13.5004 122,19.5C 123.428,30.55 120.428,40.2167 113,48.5C 103.844,58.6421 93.011,66.1421 80.5,71C 81.6824,73.2614 83.3491,75.0947 85.5,76.5C 103.411,84.5784 115.578,97.9117 122,116.5C 125.564,130.931 120.064,137.098 105.5,135C 92.598,126.248 83.598,114.415 78.5,99.5C 78.7028,97.7923 79.5362,96.459 81,95.5C 81.6667,94.1667 81.6667,92.8333 81,91.5C 78.5282,90.8002 76.1949,89.8002 74,88.5C 72.2462,90.1137 70.2462,91.447 68,92.5C 67.4719,95.2187 67.9719,97.7187 69.5,100C 65.0022,114.484 56.6689,126.151 44.5,135C 30.5993,137.127 25.0993,131.294 28,117.5C 31.8724,103.95 39.3724,92.7829 50.5,84C 56.2404,79.8017 62.2404,76.1351 68.5,73C 67.9535,72.0754 67.2868,71.2421 66.5,70.5C 48.4185,62.5858 35.5852,49.5858 28,31.5C 25.2138,22.0615 28.3804,16.0615 37.5,13.5 Z"/></g>
<g><path style="opacity:0.908" fill="#000000" d="M 104.5,30.5 C 108.691,31.5575 109.524,33.8909 107,37.5C 104.191,41.6097 101.025,45.4431 97.5,49C 93.8886,50.2542 92.3886,49.0876 93,45.5C 97.3383,40.7916 101.172,35.7916 104.5,30.5 Z"/></g>
<g><path style="opacity:0.915" fill="#000000" d="M 40.5,32.5 C 42.4672,32.2606 44.3005,32.5939 46,33.5C 48.9504,38.1185 52.2838,42.4518 56,46.5C 56.7414,49.1118 55.7414,50.7785 53,51.5C 49,46.8333 45,42.1667 41,37.5C 40.5065,35.8659 40.3398,34.1992 40.5,32.5 Z"/></g>
</svg>
