<?xml version="1.0" encoding="UTF-8"?>
<!DOCTYPE svg PUBLIC "-//W3C//DTD SVG 1.1//EN" "http://www.w3.org/Graphics/SVG/1.1/DTD/svg11.dtd">
<svg xmlns="http://www.w3.org/2000/svg" version="1.1" width="150px" height="150px" style="shape-rendering:geometricPrecision; text-rendering:geometricPrecision; image-rendering:optimizeQuality; fill-rule:evenodd; clip-rule:evenodd" xmlns:xlink="http://www.w3.org/1999/xlink">
<g><path style="opacity:0.934" fill="#000000" d="M 50.5,8.5 C 73.1263,7.15105 95.4596,8.98438 117.5,14C 130.571,24.7718 134.404,38.2718 129,54.5C 120.391,68.7858 109.891,81.6191 97.5,93C 110.394,93.4017 121.227,98.2351 130,107.5C 136.743,121.27 132.91,130.77 118.5,136C 95.087,141.114 71.4203,142.78 47.5,141C 40.9768,139.603 34.6434,137.603 28.5,135C 21.2743,129.665 18.1077,122.499 19,113.5C 30.7626,86.7344 49.2626,65.901 74.5,51C 61.8461,51.4474 49.1794,51.1141 36.5,50C 17.2909,47.3858 11.1242,37.2191 18,19.5C 22.3476,15.2415 27.5142,12.4082 33.5,11C 39.3029,10.1088 44.9696,9.27545 50.5,8.5 Z M 50.5,14.5 C 66.2024,14.1376 81.8691,14.6376 97.5,16C 118.091,16.5879 127.257,27.0879 125,47.5C 122.502,53.9897 119.168,59.9897 115,65.5C 105.132,77.0352 94.2987,87.5352 82.5,97C 78.2864,99.2737 73.9531,101.274 69.5,103C 67.3874,103.872 66.0541,105.372 65.5,107.5C 65.4342,109.266 66.2676,110.266 68,110.5C 75.6198,107.186 83.1198,103.686 90.5,100C 101.621,99.0232 111.954,101.356 121.5,107C 130.468,116.572 129.135,124.238 117.5,130C 93.0547,135.538 68.388,136.871 43.5,134C 34.7779,132.937 28.6112,128.437 25,120.5C 24.3333,118.5 24.3333,116.5 25,114.5C 34.0364,94.1258 47.5364,77.2924 65.5,64C 76.9191,56.2904 88.9191,49.6237 101.5,44C 104.313,41.4635 104.146,39.2969 101,37.5C 97.3242,39.422 93.4908,40.922 89.5,42C 71.9542,45.7119 54.2875,46.3786 36.5,44C 29.7721,43.2199 24.6055,40.0533 21,34.5C 19.4845,27.3755 21.9845,22.2089 28.5,19C 35.7771,16.5206 43.1104,15.0206 50.5,14.5 Z"/></g>
</svg>
