<?xml version="1.0" standalone="no"?>
<!DOCTYPE svg PUBLIC "-//W3C//DTD SVG 20010904//EN"
 "http://www.w3.org/TR/2001/REC-SVG-20010904/DTD/svg10.dtd">
<svg version="1.0" xmlns="http://www.w3.org/2000/svg"
 width="150.000000pt" height="150.000000pt" viewBox="0 0 150.000000 150.000000"
 preserveAspectRatio="xMidYMid meet">

<g transform="translate(0.000000,150.000000) scale(0.100000,-0.100000)"
fill="#000000" stroke="none">
<path d="M460 1299 c-80 -14 -122 -38 -145 -84 -19 -37 -20 -64 -23 -408 -3
-354 -3 -371 18 -440 16 -52 32 -81 59 -108 32 -33 44 -38 103 -44 125 -13
396 31 524 86 106 45 237 178 262 265 15 52 15 172 1 249 -31 171 -175 362
-331 441 -27 14 -84 32 -125 40 -82 15 -257 17 -343 3z m307 -63 c99 -18 163
-49 236 -116 122 -112 187 -247 195 -407 4 -96 3 -106 -22 -157 -34 -69 -129
-157 -211 -196 -107 -50 -269 -79 -446 -80 -69 0 -77 2 -101 28 -55 58 -61
100 -66 422 -4 300 3 402 34 462 11 21 25 29 66 37 114 24 207 26 315 7z"/>
<path d="M744 1103 c-8 -41 11 -63 52 -63 13 0 55 -12 95 -26 57 -21 76 -24
95 -15 32 14 30 31 -9 69 -41 40 -122 72 -182 72 -43 0 -44 -1 -51 -37z m141
-11 c32 -15 75 -51 75 -62 0 -4 -32 3 -72 16 -40 13 -80 24 -90 24 -23 0 -32
18 -18 35 13 16 57 11 105 -13z"/>
<path d="M614 818 c-8 -12 22 -38 43 -38 22 0 14 -14 -19 -33 -20 -12 -28 -21
-21 -28 6 -6 33 1 76 21 37 16 82 30 101 30 45 0 66 9 66 27 0 12 -13 14 -83
8 -64 -5 -91 -4 -120 8 -26 11 -39 13 -43 5z"/>
</g>
</svg>
