<?xml version="1.0" standalone="no"?>
<!DOCTYPE svg PUBLIC "-//W3C//DTD SVG 20010904//EN"
 "http://www.w3.org/TR/2001/REC-SVG-20010904/DTD/svg10.dtd">
<svg version="1.0" xmlns="http://www.w3.org/2000/svg"
 width="150.000000pt" height="150.000000pt" viewBox="0 0 150.000000 150.000000"
 preserveAspectRatio="xMidYMid meet">

<g transform="translate(0.000000,150.000000) scale(0.100000,-0.100000)"
fill="#000000" stroke="none">
<path d="M353 1243 c-43 -22 -59 -61 -74 -178 -25 -199 -11 -685 22 -746 21
-40 57 -53 148 -53 110 -1 154 14 192 66 27 38 29 47 29 130 l0 88 128 0 c101
0 148 5 230 25 56 14 116 32 133 40 90 47 92 210 2 253 -18 9 -33 18 -33 21 0
3 17 15 37 26 69 37 109 136 81 201 -18 41 -66 95 -107 121 -35 22 -41 22
-396 22 -308 0 -365 -3 -392 -16z m788 -99 c67 -68 58 -138 -25 -181 -21 -11
-86 -18 -225 -25 -190 -10 -198 -10 -256 12 -86 31 -123 36 -131 16 -7 -19 21
-56 43 -56 20 0 16 -18 -7 -25 -31 -10 -45 -44 -27 -63 14 -13 22 -13 74 8 32
13 62 27 67 32 18 15 264 9 350 -8 119 -24 156 -52 156 -113 0 -46 -6 -54 -55
-80 -119 -61 -461 -66 -573 -7 -36 18 -52 15 -52 -13 0 -26 29 -48 83 -61 l47
-12 -1 -67 c-1 -130 -35 -172 -143 -175 -88 -1 -102 13 -117 119 -26 178 -8
697 25 724 18 15 82 18 413 17 l313 -1 41 -41z"/>
</g>
</svg>
