<?xml version="1.0" encoding="UTF-8"?>
<!DOCTYPE svg PUBLIC "-//W3C//DTD SVG 1.1//EN" "http://www.w3.org/Graphics/SVG/1.1/DTD/svg11.dtd">
<svg xmlns="http://www.w3.org/2000/svg" version="1.1" width="150px" height="150px" style="shape-rendering:geometricPrecision; text-rendering:geometricPrecision; image-rendering:optimizeQuality; fill-rule:evenodd; clip-rule:evenodd" xmlns:xlink="http://www.w3.org/1999/xlink">
<g><path style="opacity:0.925" fill="#000000" d="M 39.5,10.5 C 48.3045,9.48364 54.1378,13.1503 57,21.5C 63.0771,39.7691 65.0771,58.4357 63,77.5C 61.7007,82.9054 59.534,87.9054 56.5,92.5C 69.7074,92.3959 83.0408,92.5626 96.5,93C 104.284,93.9282 111.618,96.2615 118.5,100C 125.332,106.456 127.165,113.956 124,122.5C 117.393,128.55 109.56,132.05 100.5,133C 80.2559,135.509 60.2559,134.176 40.5,129C 30.8623,126.031 25.6956,119.531 25,109.5C 24.1989,102.354 23.6989,95.1876 23.5,88C 24.7447,69.5061 25.9114,51.0061 27,32.5C 28.3605,23.4318 32.5272,16.0985 39.5,10.5 Z M 41.5,16.5 C 47.2052,16.6916 50.7052,19.6916 52,25.5C 57.2737,42.18 58.9404,59.18 57,76.5C 54.5701,84.0265 51.0701,91.0265 46.5,97.5C 47.4525,99.5116 49.1191,100.512 51.5,100.5C 68.4651,98.0372 85.4651,97.8705 102.5,100C 112.105,101.112 118.105,106.278 120.5,115.5C 119.441,118.068 117.774,120.235 115.5,122C 110.764,124.435 105.764,126.101 100.5,127C 81.9786,129.518 63.6452,128.518 45.5,124C 37.2568,122.424 32.4235,117.59 31,109.5C 30.1375,102.526 29.6375,95.5261 29.5,88.5C 30.7035,69.8369 31.8702,51.1703 33,32.5C 34.0483,26.0624 36.8816,20.7291 41.5,16.5 Z"/></g>
<g><path style="opacity:0.881" fill="#fefffe" d="M 41.5,26.5 C 45.7371,26.8974 48.7371,29.064 50.5,33C 49.7741,34.3974 48.6075,35.2308 47,35.5C 44.5903,34.2524 42.0903,33.2524 39.5,32.5C 39.2587,30.1137 39.9254,28.1137 41.5,26.5 Z"/></g>
</svg>
