<?xml version="1.0" encoding="UTF-8"?>
<!DOCTYPE svg PUBLIC "-//W3C//DTD SVG 1.1//EN" "http://www.w3.org/Graphics/SVG/1.1/DTD/svg11.dtd">
<svg xmlns="http://www.w3.org/2000/svg" version="1.1" width="150px" height="150px" style="shape-rendering:geometricPrecision; text-rendering:geometricPrecision; image-rendering:optimizeQuality; fill-rule:evenodd; clip-rule:evenodd" xmlns:xlink="http://www.w3.org/1999/xlink">
<g><path style="opacity:0.92" fill="#000000" d="M 75.5,10.5 C 88.1045,9.57856 99.4379,12.7452 109.5,20C 132.275,40.6193 140.108,65.7859 133,95.5C 129.409,108.022 123.243,119.022 114.5,128.5C 106.937,134.746 98.2708,138.58 88.5,140C 89.9348,142.267 89.6015,144.267 87.5,146C 81.1217,145.874 74.7884,145.874 68.5,146C 66.8078,144.599 66.1412,142.766 66.5,140.5C 40.8993,137.741 24.0659,124.074 16,99.5C 11.2976,83.1782 12.2976,67.1782 19,51.5C 25.1475,39.7013 33.3142,29.5347 43.5,21C 53.445,14.9622 64.1117,11.4622 75.5,10.5 Z M 74.5,17.5 C 84.9125,16.6759 94.5792,18.8426 103.5,24C 125.846,43.0434 133.346,66.8768 126,95.5C 122.026,107.97 115.193,118.47 105.5,127C 102.618,128.608 99.6179,129.941 96.5,131C 75.967,137.849 56.6337,135.182 38.5,123C 13.3776,93.9827 13.211,64.8161 38,35.5C 47.9275,24.7858 60.0942,18.7858 74.5,17.5 Z M 73.5,78.5 C 74.3636,79.6883 75.3636,80.8549 76.5,82C 71.3681,84.3681 70.3681,83.2015 73.5,78.5 Z"/></g>
<g><path style="opacity:0.935" fill="#fefffe" d="M 92.5,29.5 C 94.1992,29.3398 95.8659,29.5065 97.5,30C 104.663,34.3231 109.33,40.4898 111.5,48.5C 111.02,51.492 109.353,52.6586 106.5,52C 104.554,48.6103 102.721,45.1103 101,41.5C 97.6667,38.8333 94.3333,36.1667 91,33.5C 90.7003,31.9343 91.2003,30.601 92.5,29.5 Z"/></g>
<g><path style="opacity:0.933" fill="#000000" d="M 71.5,51.5 C 73.3904,51.2965 74.8904,51.9632 76,53.5C 75.1101,71.2507 82.9435,83.084 99.5,89C 102.407,92.1184 101.74,94.2851 97.5,95.5C 93.2094,94.2636 89.2094,92.4303 85.5,90C 76.6804,89.1924 68.347,90.8591 60.5,95C 58.7866,96.3782 57.4533,98.0448 56.5,100C 50.1909,100.213 49.0243,97.7132 53,92.5C 57.3333,89.5 61,85.8333 64,81.5C 66.3088,75.5964 68.3088,69.5964 70,63.5C 68.9207,59.2896 69.4207,55.2896 71.5,51.5 Z M 73.5,78.5 C 70.3681,83.2015 71.3681,84.3681 76.5,82C 75.3636,80.8549 74.3636,79.6883 73.5,78.5 Z"/></g>
</svg>
