<?xml version="1.0" encoding="UTF-8"?>
<!DOCTYPE svg PUBLIC "-//W3C//DTD SVG 1.1//EN" "http://www.w3.org/Graphics/SVG/1.1/DTD/svg11.dtd">
<svg xmlns="http://www.w3.org/2000/svg" version="1.1" width="150px" height="150px" style="shape-rendering:geometricPrecision; text-rendering:geometricPrecision; image-rendering:optimizeQuality; fill-rule:evenodd; clip-rule:evenodd" xmlns:xlink="http://www.w3.org/1999/xlink">
<g><path style="opacity:0.932" fill="#000000" d="M 54.5,19.5 C 70.8164,20.24 87.1497,20.74 103.5,21C 106.295,22.7932 108.795,24.9598 111,27.5C 118.203,53.1708 125.537,78.8374 133,104.5C 136.755,120.036 130.755,127.703 115,127.5C 109.83,127.033 104.663,126.533 99.5,126C 95,124.167 91.8333,121 90,116.5C 87.6667,110.167 85.3333,103.833 83,97.5C 82.4768,95.7774 81.4768,94.444 80,93.5C 73.8706,94.2727 67.7039,94.7727 61.5,95C 58.8932,108.562 52.2266,119.562 41.5,128C 33.6714,131.019 25.6714,131.685 17.5,130C 13.9626,127.592 12.296,124.259 12.5,120C 20.1407,87.0779 30.974,55.2446 45,24.5C 48.2093,22.7232 51.376,21.0565 54.5,19.5 Z M 57.5,25.5 C 72.1351,26.284 86.8017,26.784 101.5,27C 102.931,27.4652 104.097,28.2986 105,29.5C 112.528,55.0866 119.861,80.7532 127,106.5C 130.086,116.907 126.253,121.907 115.5,121.5C 109.719,121.19 104.053,120.357 98.5,119C 94.0856,110.094 90.2523,100.927 87,91.5C 85.5028,89.3234 83.5028,87.99 81,87.5C 73.1614,89.1189 65.3281,89.7856 57.5,89.5C 54.9148,96.0834 52.4148,102.75 50,109.5C 47.2523,114.252 43.7523,118.419 39.5,122C 32.78,125.198 25.9466,125.698 19,123.5C 25.2978,90.605 35.6311,58.9384 50,28.5C 52.5667,27.4131 55.0667,26.4131 57.5,25.5 Z"/></g>
<g><path style="opacity:0.94" fill="#000000" d="M 72.5,47.5 C 74.4672,47.2606 76.3005,47.5939 78,48.5C 79.0721,53.8124 81.5721,58.3124 85.5,62C 85.0426,62.414 84.7093,62.914 84.5,63.5C 77.7386,62.8966 70.9053,62.8966 64,63.5C 63.2195,62.0563 63.3861,60.723 64.5,59.5C 69.6635,57.1751 72.3301,53.1751 72.5,47.5 Z"/></g>
</svg>
