<?xml version="1.0" standalone="no"?>
<!DOCTYPE svg PUBLIC "-//W3C//DTD SVG 20010904//EN"
 "http://www.w3.org/TR/2001/REC-SVG-20010904/DTD/svg10.dtd">
<svg version="1.0" xmlns="http://www.w3.org/2000/svg"
 width="150.000000pt" height="150.000000pt" viewBox="0 0 150.000000 150.000000"
 preserveAspectRatio="xMidYMid meet">

<g transform="translate(0.000000,150.000000) scale(0.100000,-0.100000)"
fill="#000000" stroke="none">
<path d="M613 1337 c-62 -18 -138 -47 -170 -63 -51 -26 -63 -39 -110 -114 -80
-130 -111 -220 -115 -332 -7 -216 56 -433 150 -516 96 -84 130 -111 170 -131
53 -27 189 -46 332 -46 103 0 107 1 190 41 87 43 149 95 177 148 18 35 11 141
-13 188 -40 78 -143 90 -295 33 -102 -38 -124 -40 -211 -22 -41 9 -69 23 -98
48 l-40 36 0 92 c0 124 39 263 84 300 12 10 29 11 82 2 36 -7 76 -18 88 -26
50 -33 163 -66 241 -72 l81 -6 36 37 c19 20 43 57 53 82 15 40 16 53 5 105 -7
32 -20 64 -29 72 -43 37 -220 139 -265 152 -28 9 -91 18 -141 20 -81 5 -102 2
-202 -28z m283 -38 c61 -11 138 -50 234 -117 81 -56 90 -119 28 -197 -36 -46
-140 -32 -286 37 -86 40 -193 56 -226 34 -73 -47 -116 -165 -123 -336 -5 -108
-4 -117 19 -149 32 -47 98 -92 150 -102 95 -18 171 -11 267 25 67 26 100 34
128 30 79 -11 103 -39 103 -123 0 -40 -6 -54 -36 -89 -70 -82 -253 -147 -347
-124 -23 6 -76 14 -117 18 -96 9 -151 35 -238 113 -59 52 -75 73 -100 134 -74
178 -94 366 -53 498 12 37 28 72 36 79 8 7 15 18 15 24 0 19 42 90 62 104 10
7 16 18 13 23 -4 5 -1 9 5 9 7 0 25 11 42 25 16 14 68 36 116 51 141 41 131
40 104 11 -31 -33 -26 -68 10 -81 34 -12 134 9 142 30 10 27 -15 63 -48 69
-17 2 -42 6 -56 8 -14 3 2 5 36 6 33 0 87 -4 120 -10z m-87 -42 c17 -22 -8
-37 -61 -37 -49 0 -61 13 -36 38 16 16 83 15 97 -1z"/>
</g>
</svg>
