<?xml version="1.0" standalone="no"?>
<!DOCTYPE svg PUBLIC "-//W3C//DTD SVG 20010904//EN"
 "http://www.w3.org/TR/2001/REC-SVG-20010904/DTD/svg10.dtd">
<svg version="1.0" xmlns="http://www.w3.org/2000/svg"
 width="150.000000pt" height="150.000000pt" viewBox="0 0 150.000000 150.000000"
 preserveAspectRatio="xMidYMid meet">

<g transform="translate(0.000000,150.000000) scale(0.100000,-0.100000)"
fill="#000000" stroke="none">
<path d="M528 1379 c-77 -10 -165 -41 -203 -71 -34 -26 -64 -91 -65 -136 0
-38 28 -98 62 -129 48 -45 113 -65 227 -68 79 -2 105 -6 103 -15 -10 -42 -17
-223 -10 -283 10 -105 9 -222 -2 -251 -7 -18 -17 -26 -34 -26 -22 0 -25 5 -30
63 -12 117 -18 138 -49 185 -52 77 -138 93 -218 39 -59 -39 -71 -75 -67 -209
4 -112 5 -119 44 -195 44 -88 73 -113 191 -163 64 -27 83 -30 170 -30 107 0
143 12 228 70 49 34 84 82 105 144 13 40 16 502 4 616 l-6 55 89 2 c111 2 162
17 211 59 71 60 90 139 53 212 -57 112 -176 143 -536 141 -110 -1 -230 -5
-267 -10z m566 -59 c85 -14 138 -38 169 -78 51 -66 25 -152 -57 -191 -34 -17
-62 -21 -146 -21 -90 0 -106 3 -125 20 -13 12 -29 18 -38 14 -22 -8 -21 -16 5
-67 20 -39 22 -62 30 -327 10 -307 6 -343 -37 -409 -33 -49 -122 -102 -191
-113 -73 -11 -164 5 -241 42 -118 58 -163 144 -163 311 0 92 2 102 24 124 28
28 88 42 120 27 36 -16 66 -90 72 -174 7 -103 10 -113 39 -126 72 -33 138 7
150 92 4 27 3 103 -2 169 -12 143 -8 267 13 355 8 35 12 68 8 73 -7 12 -41 12
-49 -1 -4 -6 -52 -10 -113 -10 -124 0 -173 17 -216 72 -71 93 4 190 169 217
71 12 508 13 579 1z"/>
<path d="M425 1234 c-13 -14 -16 -30 -13 -76 5 -62 17 -84 42 -75 12 5 16 22
16 75 0 79 -15 105 -45 76z"/>
<path d="M581 1231 c-8 -5 -11 -31 -9 -77 3 -58 6 -69 22 -72 23 -5 36 14 36
54 0 75 -19 113 -49 95z"/>
</g>
</svg>
