<?xml version="1.0" encoding="UTF-8"?>
<!DOCTYPE svg PUBLIC "-//W3C//DTD SVG 1.1//EN" "http://www.w3.org/Graphics/SVG/1.1/DTD/svg11.dtd">
<svg xmlns="http://www.w3.org/2000/svg" version="1.1" width="150px" height="150px" style="shape-rendering:geometricPrecision; text-rendering:geometricPrecision; image-rendering:optimizeQuality; fill-rule:evenodd; clip-rule:evenodd" xmlns:xlink="http://www.w3.org/1999/xlink">
<g><path style="opacity:0.941" fill="#000000" d="M 35.5,11.5 C 42.5937,11.1032 48.5937,13.4366 53.5,18.5C 63.2773,13.2642 73.7773,10.9309 85,11.5C 125.418,9.57959 143.418,28.5796 139,68.5C 132.48,83.6908 120.98,92.5242 104.5,95C 89.0286,99.3354 74.0286,98.1687 59.5,91.5C 58.6679,100.816 58.1679,110.149 58,119.5C 54.0711,138.212 43.5711,143.712 26.5,136C 23.4333,132.703 21.2666,128.869 20,124.5C 19.5258,93.7162 19.3591,63.0495 19.5,32.5C 21.7401,22.9663 27.0734,15.9663 35.5,11.5 Z M 37.5,18.5 C 44.4824,18.9713 48.9824,22.6379 51,29.5C 53,32.1667 55,32.1667 57,29.5C 56.8718,27.555 57.0385,25.7216 57.5,24C 69.6657,18.893 82.3324,17.2264 95.5,19C 125.637,21.3907 137.804,37.5573 132,67.5C 126.2,79.3301 116.7,86.1634 103.5,88C 88.2601,92.4328 73.5935,91.0994 59.5,84C 57.2132,81.9302 55.5466,79.4302 54.5,76.5C 51.5062,74.9973 49.5062,75.8306 48.5,79C 49.4721,81.1113 50.3054,83.2779 51,85.5C 51.6667,96.8333 51.6667,108.167 51,119.5C 48.726,131.182 42.226,135.015 31.5,131C 28.8194,128.806 27.3194,125.973 27,122.5C 26.3333,93.5 26.3333,64.5 27,35.5C 27.5165,27.7657 31.0165,22.099 37.5,18.5 Z"/></g>
<g><path style="opacity:0.875" fill="#000000" d="M 87.5,42.5 C 88.5,42.5 89.5,42.5 90.5,42.5C 88.916,48.8294 91.2494,53.3294 97.5,56C 100.424,56.9876 103.424,57.6543 106.5,58C 107.851,60.125 107.185,61.2917 104.5,61.5C 98.3008,59.4249 91.9675,58.5916 85.5,59C 81.921,59.6142 79.2543,61.4475 77.5,64.5C 75.7697,63.9744 74.4363,62.9744 73.5,61.5C 80.838,57.1662 85.5046,50.8329 87.5,42.5 Z"/></g>
</svg>
