<?xml version="1.0" encoding="UTF-8"?>
<!DOCTYPE svg PUBLIC "-//W3C//DTD SVG 1.1//EN" "http://www.w3.org/Graphics/SVG/1.1/DTD/svg11.dtd">
<svg xmlns="http://www.w3.org/2000/svg" version="1.1" width="150px" height="150px" style="shape-rendering:geometricPrecision; text-rendering:geometricPrecision; image-rendering:optimizeQuality; fill-rule:evenodd; clip-rule:evenodd" xmlns:xlink="http://www.w3.org/1999/xlink">
<g><path style="opacity:0.925" fill="#000000" d="M 37.5,13.5 C 41.059,13.4081 44.3924,14.2415 47.5,16C 57.8924,24.5832 61.559,35.5832 58.5,49C 57.5438,63.9821 60.3771,78.1488 67,91.5C 71.8829,94.279 76.5496,93.9457 81,90.5C 87.6901,77.6929 90.5235,64.0262 89.5,49.5C 86.3894,35.9633 90.0561,24.7966 100.5,16C 114.666,11.2801 124.332,15.9468 129.5,30C 129.355,31.2259 129.022,32.3926 128.5,33.5C 133.797,62.3888 128.964,89.3888 114,114.5C 99.967,130.289 82.467,136.122 61.5,132C 49.4691,128.73 39.9691,121.897 33,111.5C 19.5502,83.5673 15.8836,54.5673 22,24.5C 25.7816,18.7083 30.9483,15.0416 37.5,13.5 Z M 37.5,20.5 C 39.9267,20.523 42.26,21.023 44.5,22C 46.6667,24.8333 48.8333,27.6667 51,30.5C 51.693,44.7444 52.3597,59.0777 53,73.5C 54.0277,82.2608 57.1943,90.0941 62.5,97C 69.7372,101.522 77.0705,101.522 84.5,97C 89.9261,90.0656 93.4261,82.2323 95,73.5C 95.2628,65.4799 95.7628,57.4799 96.5,49.5C 95.1273,42.3571 95.6273,35.3571 98,28.5C 105.267,18.2632 112.933,17.9298 121,27.5C 127.441,56.4139 123.441,83.7472 109,109.5C 96.4891,123.893 80.9891,129.059 62.5,125C 52.7533,122.258 44.92,116.758 39,108.5C 26.6119,83.1246 22.9452,56.4579 28,28.5C 30.1608,24.4952 33.3275,21.8286 37.5,20.5 Z"/></g>
<g><path style="opacity:0.912" fill="#000000" d="M 108.5,31.5 C 110.39,31.2965 111.89,31.9632 113,33.5C 114.197,39.1294 114.53,44.796 114,50.5C 112,53.1667 110,53.1667 108,50.5C 107.632,46.1503 107.132,41.817 106.5,37.5C 106.611,35.2857 107.278,33.2857 108.5,31.5 Z"/></g>
<g><path style="opacity:0.91" fill="#000000" d="M 36.5,32.5 C 38.1439,32.2865 39.6439,32.6198 41,33.5C 41.6667,39.1667 41.6667,44.8333 41,50.5C 38.1521,53.0939 36.1521,52.4272 35,48.5C 34.0025,42.9504 34.5025,37.617 36.5,32.5 Z"/></g>
<g><path style="opacity:0.943" fill="#000000" d="M 103.5,88.5 C 105.818,88.8184 107.152,90.1517 107.5,92.5C 106.348,96.4915 104.515,100.158 102,103.5C 87.2388,117.226 71.0721,119.059 53.5,109C 50.2694,106.273 47.6028,103.106 45.5,99.5C 46.7222,96.9106 48.7222,96.0772 51.5,97C 53.5565,100.723 56.5565,103.39 60.5,105C 79.7975,112.182 94.1308,106.682 103.5,88.5 Z"/></g>
</svg>
