<?xml version="1.0" encoding="UTF-8"?>
<!DOCTYPE svg PUBLIC "-//W3C//DTD SVG 1.1//EN" "http://www.w3.org/Graphics/SVG/1.1/DTD/svg11.dtd">
<svg xmlns="http://www.w3.org/2000/svg" version="1.1" width="150px" height="150px" style="shape-rendering:geometricPrecision; text-rendering:geometricPrecision; image-rendering:optimizeQuality; fill-rule:evenodd; clip-rule:evenodd" xmlns:xlink="http://www.w3.org/1999/xlink">
<g><path style="opacity:1" fill="#2b2b2a" d="M -0.5,-0.5 C 49.5,-0.5 99.5,-0.5 149.5,-0.5C 149.5,49.5 149.5,99.5 149.5,149.5C 99.5,149.5 49.5,149.5 -0.5,149.5C -0.5,99.5 -0.5,49.5 -0.5,-0.5 Z M 5.5,5.5 C 19.5,5.5 33.5,5.5 47.5,5.5C 47.5,51.5 47.5,97.5 47.5,143.5C 33.5,143.5 19.5,143.5 5.5,143.5C 5.5,97.5 5.5,51.5 5.5,5.5 Z M 53.5,5.5 C 67.5,5.5 81.5,5.5 95.5,5.5C 95.5,51.5 95.5,97.5 95.5,143.5C 81.5,143.5 67.5,143.5 53.5,143.5C 53.5,97.5 53.5,51.5 53.5,5.5 Z M 101.5,5.5 C 115.5,5.5 129.5,5.5 143.5,5.5C 143.5,51.5 143.5,97.5 143.5,143.5C 129.5,143.5 115.5,143.5 101.5,143.5C 101.5,97.5 101.5,51.5 101.5,5.5 Z"/></g>
</svg>
