<?xml version="1.0" encoding="UTF-8"?>
<!DOCTYPE svg PUBLIC "-//W3C//DTD SVG 1.1//EN" "http://www.w3.org/Graphics/SVG/1.1/DTD/svg11.dtd">
<svg xmlns="http://www.w3.org/2000/svg" version="1.1" width="150px" height="150px" style="shape-rendering:geometricPrecision; text-rendering:geometricPrecision; image-rendering:optimizeQuality; fill-rule:evenodd; clip-rule:evenodd" xmlns:xlink="http://www.w3.org/1999/xlink">
<g><path style="opacity:0.726" fill="#000000" d="M 48.5,18.5 C 66.8255,19.1471 85.1588,19.6471 103.5,20C 108.712,22.2468 112.212,26.0802 114,31.5C 120.042,56.3367 126.709,81.0033 134,105.5C 137.183,120.809 131.016,128.476 115.5,128.5C 107.77,128.633 100.436,127.133 93.5,124C 92.7894,122.745 91.956,121.579 91,120.5C 87.4956,111.983 83.9956,103.483 80.5,95C 74.2523,95.414 67.9189,95.5806 61.5,95.5C 59.5604,109.555 52.8937,120.721 41.5,129C 33.6857,132.144 25.6857,132.811 17.5,131C 15,129.833 13.1667,128 12,125.5C 11.4488,120.455 11.7821,115.455 13,110.5C 21.1671,80.9945 31.5004,52.3278 44,24.5C 45.5793,22.9588 47.4127,21.7922 49.5,21C 47.3808,20.6582 47.0474,19.8249 48.5,18.5 Z M 56.5,26.5 C 71.4685,27.2852 86.4685,27.7852 101.5,28C 105.055,30.9321 107.222,34.7654 108,39.5C 113.149,61.7278 119.149,83.7278 126,105.5C 126.796,109.755 126.629,113.921 125.5,118C 122.177,119.539 118.677,120.372 115,120.5C 110.17,119.967 105.337,119.467 100.5,119C 98.0439,116.592 96.2106,113.759 95,110.5C 92.6446,102.079 89.1446,94.2458 84.5,87C 78.9681,86.8367 73.4681,87.3367 68,88.5C 64.5005,87.8307 61.0005,87.664 57.5,88C 54.2887,94.9575 51.4554,102.124 49,109.5C 43.9855,119.338 35.9855,124.338 25,124.5C 23.2367,124.025 21.57,123.358 20,122.5C 26.4371,90.3543 36.6038,59.3543 50.5,29.5C 52.5939,28.4824 54.5939,27.4824 56.5,26.5 Z"/></g>
<g><path style="opacity:0.737" fill="#000000" d="M 71.5,46.5 C 74.1194,46.2317 76.6194,46.565 79,47.5C 80,50.5 81,53.5 82,56.5C 83.892,58.0542 85.392,59.8876 86.5,62C 86.2409,63.2613 85.5742,64.2613 84.5,65C 81.2019,65.5417 78.0352,65.0417 75,63.5C 71.0991,65.5727 67.0991,65.9061 63,64.5C 62.3333,62.8333 62.3333,61.1667 63,59.5C 68.8397,57.1584 71.6731,52.8251 71.5,46.5 Z"/></g>
</svg>
