<?xml version="1.0" encoding="UTF-8"?>
<!DOCTYPE svg PUBLIC "-//W3C//DTD SVG 1.1//EN" "http://www.w3.org/Graphics/SVG/1.1/DTD/svg11.dtd">
<svg xmlns="http://www.w3.org/2000/svg" version="1.1" width="150px" height="150px" style="shape-rendering:geometricPrecision; text-rendering:geometricPrecision; image-rendering:optimizeQuality; fill-rule:evenodd; clip-rule:evenodd" xmlns:xlink="http://www.w3.org/1999/xlink">
<g><path style="opacity:0.961" fill="#000000" d="M 42.5,15.5 C 57.085,20.251 66.9183,29.9177 72,44.5C 75.0036,42.3648 77.337,39.0314 79,34.5C 85.3654,24.9871 94.0321,18.6538 105,15.5C 114.502,15.5832 121.835,19.5832 127,27.5C 133.551,42.6356 136.384,58.4689 135.5,75C 135.517,88.5597 134.684,102.06 133,115.5C 131.726,130.119 123.893,136.619 109.5,135C 100.915,131.346 96.082,124.846 95,115.5C 94.6667,106.833 94.3333,98.1667 94,89.5C 80.8479,109.022 67.3479,109.356 53.5,90.5C 53.6436,100.121 53.1436,109.788 52,119.5C 48.0279,132.564 39.5279,137.398 26.5,134C 19.4721,127.442 15.9721,119.275 16,109.5C 14.1659,89.8189 14.1659,70.1522 16,50.5C 17.405,42.2106 19.7383,34.2106 23,26.5C 27.7238,19.5578 34.2238,15.8911 42.5,15.5 Z M 36.5,22.5 C 44.5766,21.9541 51.4099,24.6207 57,30.5C 63.1411,37.6148 67.3078,45.7815 69.5,55C 65.9239,61.7355 67.4239,63.5689 74,60.5C 77.0792,63.4248 79.5792,63.0915 81.5,59.5C 77.2818,56.2435 76.4484,52.2435 79,47.5C 83.3392,37.494 90.1725,29.6606 99.5,24C 111.262,20.1304 119.428,23.9638 124,35.5C 128.438,48.1302 130.272,61.1302 129.5,74.5C 129.467,88.2232 128.634,101.89 127,115.5C 126.265,123.398 122.099,128.398 114.5,130.5C 107.019,128.185 102.519,123.185 101,115.5C 99.9504,100.014 100.95,84.6812 104,69.5C 104.93,66.6384 106.597,64.305 109,62.5C 110.167,58.3333 108.667,56.8333 104.5,58C 102.5,61.3333 100.5,61.3333 98.5,58C 96.8876,57.2797 95.3876,57.4464 94,58.5C 94.8286,61.8508 95.9952,65.1841 97.5,68.5C 94.525,79.313 88.8584,88.4796 80.5,96C 75.7995,99.2123 71.1328,99.2123 66.5,96C 58.5148,89.2031 53.1815,80.7031 50.5,70.5C 52.8616,66.4566 54.0283,62.1233 54,57.5C 53.4387,56.9781 52.772,56.6448 52,56.5C 49.6794,57.4872 48.0128,59.1539 47,61.5C 43.4018,57.5522 40.2352,57.7189 37.5,62C 40.0385,63.6659 42.2052,65.8326 44,68.5C 47.4204,85.4123 48.0871,102.412 46,119.5C 39.1557,132.515 31.8224,133.182 24,121.5C 20.7693,99.6197 19.7693,77.6197 21,55.5C 21.9615,45.9857 24.6282,36.9857 29,28.5C 31.1141,25.8792 33.6141,23.8792 36.5,22.5 Z"/></g>
<g><path style="opacity:0.938" fill="#000000" d="M 64.5,68.5 C 66.1439,68.2865 67.6439,68.6198 69,69.5C 69.9357,73.9115 70.1024,78.2448 69.5,82.5C 67.8561,82.7135 66.3561,82.3802 65,81.5C 63.4101,77.1568 63.2434,72.8235 64.5,68.5 Z"/></g>
<g><path style="opacity:0.941" fill="#000000" d="M 77.5,68.5 C 78.5832,68.5394 79.5832,68.8728 80.5,69.5C 81.6599,73.4589 81.8265,77.4589 81,81.5C 76.0786,83.2495 74.2452,81.4162 75.5,76C 75.3026,73.1755 75.9693,70.6755 77.5,68.5 Z"/></g>
<g><path style="opacity:0.87" fill="#000000" d="M 64.5,87.5 C 69.8333,87.5 75.1667,87.5 80.5,87.5C 79.6458,92.0299 76.8125,94.0299 72,93.5C 67.2262,94.2088 64.7262,92.2088 64.5,87.5 Z"/></g>
</svg>
