<?xml version="1.0" encoding="UTF-8"?>
<!DOCTYPE svg PUBLIC "-//W3C//DTD SVG 1.1//EN" "http://www.w3.org/Graphics/SVG/1.1/DTD/svg11.dtd">
<svg xmlns="http://www.w3.org/2000/svg" version="1.1" width="150px" height="150px" style="shape-rendering:geometricPrecision; text-rendering:geometricPrecision; image-rendering:optimizeQuality; fill-rule:evenodd; clip-rule:evenodd" xmlns:xlink="http://www.w3.org/1999/xlink">
<g><path style="opacity:0.915" fill="#000000" d="M 32.5,10.5 C 42.1913,9.1624 51.1913,10.9957 59.5,16C 71.0577,25.8785 79.891,37.7118 86,51.5C 86.51,39.9432 89.1767,28.9432 94,18.5C 100.902,11.4386 109.069,9.60528 118.5,13C 125.001,19.7986 128.834,27.9653 130,37.5C 131.979,64.8299 131.979,92.1632 130,119.5C 125.259,136.126 114.425,142.292 97.5,138C 87.479,132.981 79.3123,125.814 73,116.5C 66.5523,105.939 60.8856,94.9388 56,83.5C 54.2412,87.3979 54.0745,91.3979 55.5,95.5C 55.2025,107.417 53.3691,119.084 50,130.5C 45.5202,138.656 38.6869,141.822 29.5,140C 26.4605,138.969 23.9605,137.135 22,134.5C 16.5738,122.44 13.9071,109.774 14,96.5C 13.7742,77.497 14.1075,58.497 15,39.5C 15.0294,30.9903 17.196,23.157 21.5,16C 25.2585,14.1207 28.9252,12.2874 32.5,10.5 Z M 33.5,18.5 C 39.5933,18.1392 45.5933,18.6392 51.5,20C 61.3587,26.8925 69.5253,35.3925 76,45.5C 81,56.5 86,67.5 91,78.5C 94.2825,79.9114 96.1158,78.7448 96.5,75C 92.438,59.0974 92.6046,43.2641 97,27.5C 102.115,19.2753 109.115,17.2753 118,21.5C 121.71,27.9904 124.043,34.9904 125,42.5C 125.667,66.1667 125.667,89.8333 125,113.5C 122.433,128.388 113.6,134.222 98.5,131C 90.0478,126.215 83.2145,119.715 78,111.5C 69.6027,96.7045 62.2694,81.3711 56,65.5C 52.4824,61.5609 49.8157,62.2276 48,67.5C 48.3581,80.1558 48.3581,92.8224 48,105.5C 47.8621,113.525 46.1955,121.192 43,128.5C 32.4716,135.904 25.8049,133.237 23,120.5C 21.4574,113.578 20.4574,106.578 20,99.5C 19.5658,79.1587 19.8992,58.8254 21,38.5C 21.4215,34.1279 22.0881,29.7946 23,25.5C 25.9606,22.2758 29.4606,19.9424 33.5,18.5 Z M 69.5,60.5 C 75.2748,59.2746 77.9415,61.6079 77.5,67.5C 77.5637,69.3893 77.0637,71.0559 76,72.5C 76.2626,71.0494 76.0959,69.7161 75.5,68.5C 73.3298,70.9494 70.9965,72.4494 68.5,73C 69.6226,74.0437 70.9559,74.7104 72.5,75C 64.9794,75.1159 62.4794,71.6159 65,64.5C 66.3968,62.9297 67.8968,61.5964 69.5,60.5 Z"/></g>
<g><path style="opacity:0.924" fill="#fefffe" d="M 102.5,28.5 C 112.602,28.9314 118.269,34.2647 119.5,44.5C 118.339,48.7216 116.172,49.3883 113,46.5C 112.261,42.9382 110.761,39.7716 108.5,37C 105.898,36.0229 103.398,34.8563 101,33.5C 100.387,31.5048 100.887,29.8381 102.5,28.5 Z"/></g>
<g><path style="opacity:0.739" fill="#000000" d="M 62.5,47.5 C 66.0488,48.3317 67.3821,50.3317 66.5,53.5C 63.9285,52.2723 62.5952,50.2723 62.5,47.5 Z"/></g>
<g><path style="opacity:0.856" fill="#000000" d="M 58.5,49.5 C 61.3145,50.9008 62.6479,52.9008 62.5,55.5C 59.6282,54.0592 58.2948,52.0592 58.5,49.5 Z"/></g>
<g><path style="opacity:0.817" fill="#000000" d="M 52.5,51.5 C 53.4959,51.4142 54.3292,51.7476 55,52.5C 55.7922,54.5873 56.9588,56.4207 58.5,58C 58,58.5 57.5,59 57,59.5C 54.7159,57.2643 53.2159,54.5976 52.5,51.5 Z"/></g>
<g><path style="opacity:0.854" fill="#000000" d="M 70.5,56.5 C 79.0408,57.2129 82.5408,61.8796 81,70.5C 80.5464,72.5364 79.7131,74.3697 78.5,76C 79.2887,77.6255 80.2887,79.1255 81.5,80.5C 83.3159,78.5586 85.3159,77.8919 87.5,78.5C 86.6533,79.8448 85.4866,80.8448 84,81.5C 83.4054,82.8989 83.5721,84.2322 84.5,85.5C 89.3385,87.2512 94.3385,88.2512 99.5,88.5C 99.6495,89.552 99.4828,90.552 99,91.5C 94.6064,90.1585 90.1064,89.6585 85.5,90C 83.3975,93.512 81.3975,97.012 79.5,100.5C 79.1667,100 78.8333,99.5 78.5,99C 80.0303,95.4393 81.6969,91.9393 83.5,88.5C 81.5283,83.5183 78.8616,83.185 75.5,87.5C 75.1667,87.1667 74.8333,86.8333 74.5,86.5C 75.4803,85.0186 76.647,83.6853 78,82.5C 78.7789,80.0937 77.9456,78.427 75.5,77.5C 62.8496,80.0124 58.3496,75.0124 62,62.5C 64.3218,59.6047 67.1552,57.6047 70.5,56.5 Z M 69.5,60.5 C 67.8968,61.5964 66.3968,62.9297 65,64.5C 62.4794,71.6159 64.9794,75.1159 72.5,75C 70.9559,74.7104 69.6226,74.0437 68.5,73C 70.9965,72.4494 73.3298,70.9494 75.5,68.5C 76.0959,69.7161 76.2626,71.0494 76,72.5C 77.0637,71.0559 77.5637,69.3893 77.5,67.5C 77.9415,61.6079 75.2748,59.2746 69.5,60.5 Z"/></g>
<g><path style="opacity:0.8" fill="#000000" d="M 70.5,62.5 C 72.6408,63.7551 73.3074,65.4218 72.5,67.5C 70.3229,66.1853 69.6562,64.5187 70.5,62.5 Z"/></g>
<g><path style="opacity:0.811" fill="#000000" d="M 65.5,65.5 C 68.7195,66.0211 69.7195,67.6878 68.5,70.5C 66.7377,69.3115 65.7377,67.6449 65.5,65.5 Z"/></g>
<g><path style="opacity:0.868" fill="#000000" d="M 97.5,94.5 C 99.7402,95.5676 101.574,97.2342 103,99.5C 103.688,100.332 103.521,100.998 102.5,101.5C 99.6509,99.9881 97.9842,97.6548 97.5,94.5 Z"/></g>
<g><path style="opacity:0.786" fill="#000000" d="M 84.5,95.5 C 86.358,96.5955 88.0246,97.9288 89.5,99.5C 86.9529,100.539 84.9529,99.7052 83.5,97C 84.056,96.6174 84.3893,96.1174 84.5,95.5 Z"/></g>
<g><path style="opacity:0.794" fill="#000000" d="M 90.5,95.5 C 93.3213,95.3159 94.9879,96.6493 95.5,99.5C 92.8534,99.8951 91.1867,98.5618 90.5,95.5 Z"/></g>
<g><path style="opacity:0.817" fill="#000000" d="M 88.5,106.5 C 92.012,107.005 94.3454,109.005 95.5,112.5C 94.9984,113.521 94.3317,113.688 93.5,113C 91.7122,110.816 90.0456,108.649 88.5,106.5 Z"/></g>
<g><path style="opacity:0.808" fill="#000000" d="M 96.5,107.5 C 99.2558,108.217 101.256,109.884 102.5,112.5C 101.998,113.521 101.332,113.688 100.5,113C 98.5359,111.549 97.2026,109.716 96.5,107.5 Z"/></g>
<g><path style="opacity:0.867" fill="#000000" d="M 105.5,107.5 C 108.272,107.595 110.272,108.929 111.5,111.5C 110.998,112.521 110.332,112.688 109.5,112C 107.808,110.693 106.475,109.193 105.5,107.5 Z"/></g>
</svg>
