<?xml version="1.0" encoding="UTF-8"?>
<!DOCTYPE svg PUBLIC "-//W3C//DTD SVG 1.1//EN" "http://www.w3.org/Graphics/SVG/1.1/DTD/svg11.dtd">
<svg xmlns="http://www.w3.org/2000/svg" version="1.1" width="150px" height="150px" style="shape-rendering:geometricPrecision; text-rendering:geometricPrecision; image-rendering:optimizeQuality; fill-rule:evenodd; clip-rule:evenodd" xmlns:xlink="http://www.w3.org/1999/xlink">
<g><path style="opacity:0.946" fill="#000000" d="M 63.5,4.5 C 81.5268,3.26449 97.8601,7.76449 112.5,18C 123.05,28.6119 129.217,41.4452 131,56.5C 132.377,71.2229 131.21,85.7229 127.5,100C 143.146,109.28 146.313,121.78 137,137.5C 131.017,141.759 124.517,142.592 117.5,140C 113.101,138.094 109.101,135.594 105.5,132.5C 80.2405,142.999 55.5738,141.833 31.5,129C 21.472,120.974 14.6387,110.807 11,98.5C 3.59944,73.1642 6.59944,49.1642 20,26.5C 31.4811,13.1762 45.9811,5.84283 63.5,4.5 Z M 62.5,11.5 C 103.312,9.15019 123.979,28.3169 124.5,69C 124.7,77.6046 123.867,86.1046 122,94.5C 121.513,98.1139 120.013,101.114 117.5,103.5C 117.608,104.442 117.941,105.275 118.5,106C 134.544,109.375 138.878,118.375 131.5,133C 128.298,134.483 124.964,134.817 121.5,134C 115.649,131.809 111.483,127.976 109,122.5C 107.267,120.398 105.267,120.065 103,121.5C 102.55,123.519 101.717,125.352 100.5,127C 81.9496,133.659 63.2829,133.993 44.5,128C 27.8083,120.149 18.3083,106.982 16,88.5C 11.5747,68.3282 14.5747,49.3282 25,31.5C 34.6416,19.4297 47.1416,12.7631 62.5,11.5 Z M 71.5,66.5 C 73.2481,69.4305 75.2481,72.2639 77.5,75C 74.1177,75.8236 70.7844,75.657 67.5,74.5C 69.3716,72.0901 70.705,69.4234 71.5,66.5 Z"/></g>
<g><path style="opacity:0.942" fill="#fefffe" d="M 88.5,27.5 C 99.056,30.7424 105.056,37.9091 106.5,49C 106.26,54.2809 104.093,55.4476 100,52.5C 99.6806,43.1881 95.3473,36.5215 87,32.5C 86.3872,30.5048 86.8872,28.8381 88.5,27.5 Z"/></g>
<g><path style="opacity:0.931" fill="#000000" d="M 69.5,49.5 C 70.9305,49.4208 72.2638,49.7542 73.5,50.5C 76.0192,58.539 79.8525,65.8724 85,72.5C 91.2262,76.384 96.8929,81.0506 102,86.5C 103.167,90.6667 101.667,92.1667 97.5,91C 87.8925,83.1822 76.8925,80.5156 64.5,83C 58.1322,84.898 52.1322,87.5646 46.5,91C 41.7458,91.8523 40.4125,90.0189 42.5,85.5C 49.4114,80.7636 55.9114,75.4303 62,69.5C 64.8144,62.8759 67.3144,56.2092 69.5,49.5 Z M 71.5,66.5 C 70.705,69.4234 69.3716,72.0901 67.5,74.5C 70.7844,75.657 74.1177,75.8236 77.5,75C 75.2481,72.2639 73.2481,69.4305 71.5,66.5 Z"/></g>
<g><path style="opacity:0.911" fill="#fefffe" d="M 120.5,114.5 C 124.17,114.327 126.67,115.993 128,119.5C 128.847,122.588 128.347,125.421 126.5,128C 125.216,128.684 124.049,128.517 123,127.5C 122.667,125.5 122.333,123.5 122,121.5C 119.434,119.573 118.934,117.24 120.5,114.5 Z"/></g>
</svg>
