<?xml version="1.0" encoding="UTF-8"?>
<!DOCTYPE svg PUBLIC "-//W3C//DTD SVG 1.1//EN" "http://www.w3.org/Graphics/SVG/1.1/DTD/svg11.dtd">
<svg xmlns="http://www.w3.org/2000/svg" version="1.1" width="150px" height="150px" style="shape-rendering:geometricPrecision; text-rendering:geometricPrecision; image-rendering:optimizeQuality; fill-rule:evenodd; clip-rule:evenodd" xmlns:xlink="http://www.w3.org/1999/xlink">
<g><path style="opacity:0.922" fill="#000000" d="M 72.5,12.5 C 91.979,10.7116 108.479,16.7116 122,30.5C 125.083,39.0203 123.583,46.5203 117.5,53C 111.162,55.8361 104.828,58.6695 98.5,61.5C 121.733,73.7007 127.9,91.7007 117,115.5C 105.721,131.832 90.054,139.165 70,137.5C 56.1308,136.908 42.9642,133.574 30.5,127.5C 19.3754,117.103 20.042,107.603 32.5,99C 40.3916,94.8555 48.7249,92.0222 57.5,90.5C 30.2292,80.6279 22.0625,62.2946 33,35.5C 36.1918,28.596 40.6918,22.7627 46.5,18C 55.0128,14.7988 63.6795,12.9655 72.5,12.5 Z M 64.5,20.5 C 75.9239,20.1378 87.2573,20.9711 98.5,23C 107.112,25.6229 113.112,30.9562 116.5,39C 116.506,41.2998 116.006,43.4664 115,45.5C 102.536,53.9233 89.0356,56.09 74.5,52C 69.5795,50.2853 64.7462,48.452 60,46.5C 56.1915,47.9229 55.6915,50.0896 58.5,53C 65.4196,56.8616 72.753,59.5282 80.5,61C 86.4761,64.7448 92.8094,67.7448 99.5,70C 117.518,82.672 120.351,98.172 108,116.5C 99.8826,126.246 89.3826,130.913 76.5,130.5C 62.1262,131.325 48.4596,128.491 35.5,122C 33.2911,120.127 31.4578,117.96 30,115.5C 29.3653,113.365 29.6986,111.365 31,109.5C 41.1371,102.342 52.4704,98.3418 65,97.5C 71.8491,98.6663 78.6824,98.4997 85.5,97C 88.9508,95.5126 89.6175,93.5126 87.5,91C 74.5556,87.7959 61.889,83.7959 49.5,79C 38.6903,72.5474 33.857,63.0474 35,50.5C 37.9453,41.2728 42.4453,32.9395 48.5,25.5C 53.7922,23.3203 59.1255,21.6537 64.5,20.5 Z"/></g>
<g><path style="opacity:0.92" fill="#fefffe" d="M 84.5,28.5 C 90.2522,29.2171 95.9189,30.3838 101.5,32C 104.363,33.3635 106.363,35.5302 107.5,38.5C 106.73,40.2718 105.397,41.2718 103.5,41.5C 97.7209,37.9649 91.3876,35.7982 84.5,35C 81.9387,32.8441 81.9387,30.6774 84.5,28.5 Z"/></g>
</svg>
