<?xml version="1.0" encoding="UTF-8"?>
<!DOCTYPE svg PUBLIC "-//W3C//DTD SVG 1.1//EN" "http://www.w3.org/Graphics/SVG/1.1/DTD/svg11.dtd">
<svg xmlns="http://www.w3.org/2000/svg" version="1.1" width="150px" height="150px" style="shape-rendering:geometricPrecision; text-rendering:geometricPrecision; image-rendering:optimizeQuality; fill-rule:evenodd; clip-rule:evenodd" xmlns:xlink="http://www.w3.org/1999/xlink">
<g><path style="opacity:0.916" fill="#000000" d="M 30.5,12.5 C 33.6074,12.3512 36.6074,12.8512 39.5,14C 48.6176,24.3902 56.1176,35.8902 62,48.5C 65.53,57.4229 68.8633,66.4229 72,75.5C 76.7738,65.8526 80.7738,55.8526 84,45.5C 89.4775,34.707 96.3109,24.8737 104.5,16C 122.468,6.69793 132.802,11.8646 135.5,31.5C 129.903,50.7906 123.403,69.7906 116,88.5C 110.721,101.724 104.388,114.391 97,126.5C 94.7177,129.568 91.8844,132.068 88.5,134C 78.5377,138.302 68.871,137.969 59.5,133C 30.9109,105.481 15.2442,71.8147 12.5,32C 11.8866,25.8935 14.2199,21.2269 19.5,18C 23.1916,16.0578 26.8583,14.2245 30.5,12.5 Z M 34.5,18.5 C 35.7206,19.0283 36.8873,19.695 38,20.5C 52.511,39.1895 61.8443,60.1895 66,83.5C 64.9148,84.2931 63.7481,84.9598 62.5,85.5C 61.3861,86.723 61.2195,88.0563 62,89.5C 64.0693,90.2638 66.236,90.7638 68.5,91C 72.5222,98.6616 75.0222,98.1616 76,89.5C 80.4571,92.8054 82.4571,91.8054 82,86.5C 79.8416,85.1741 78.0082,83.5075 76.5,81.5C 81.8309,70.5037 86.3309,59.1703 90,47.5C 94.6088,37.5614 100.775,28.7281 108.5,21C 120.625,14.7152 127.625,18.2152 129.5,31.5C 120.534,60.755 109.368,89.0884 96,116.5C 90.2836,128.606 80.7836,133.106 67.5,130C 64.9293,129.099 62.596,127.766 60.5,126C 33.8945,98.6141 20.0612,65.7808 19,27.5C 20.1667,25 22,23.1667 24.5,22C 27.9419,20.8164 31.2752,19.6497 34.5,18.5 Z"/></g>
<g><path style="opacity:0.915" fill="#fefffe" d="M 108.5,30.5 C 114.347,29.8399 118.513,32.1733 121,37.5C 122.162,41.7143 120.662,43.5477 116.5,43C 115.026,38.8592 112.193,36.0259 108,34.5C 107.421,33.0715 107.588,31.7382 108.5,30.5 Z"/></g>
</svg>
