<?xml version="1.0" encoding="UTF-8"?>
<!DOCTYPE svg PUBLIC "-//W3C//DTD SVG 1.1//EN" "http://www.w3.org/Graphics/SVG/1.1/DTD/svg11.dtd">
<svg xmlns="http://www.w3.org/2000/svg" version="1.1" width="150px" height="150px" style="shape-rendering:geometricPrecision; text-rendering:geometricPrecision; image-rendering:optimizeQuality; fill-rule:evenodd; clip-rule:evenodd" xmlns:xlink="http://www.w3.org/1999/xlink">
<g><path style="opacity:0.927" fill="#000000" d="M 17.5,23.5 C 20.5184,23.3354 23.5184,23.502 26.5,24C 31.9561,29.41 35.4561,35.91 37,43.5C 38.8524,53.1332 40.5191,62.7999 42,72.5C 52.3964,53.9229 67.563,48.4229 87.5,56C 92.8049,60.2991 96.9716,65.4658 100,71.5C 102.082,56.9187 106.749,43.252 114,30.5C 123.298,20.6909 131.298,21.6909 138,33.5C 139.244,37.6445 140.411,41.8111 141.5,46C 140.627,69.6593 135.127,92.1593 125,113.5C 112.72,127.356 98.3869,130.023 82,121.5C 78.1826,117.532 75.6826,112.865 74.5,107.5C 73.1667,107.5 71.8333,107.5 70.5,107.5C 64.0759,125.873 52.0759,130.706 34.5,122C 25.7988,114.789 19.9655,105.622 17,94.5C 10.9686,73.9153 8.30194,52.9153 9,31.5C 10.4447,27.218 13.2781,24.5513 17.5,23.5 Z M 19.5,29.5 C 20.5,29.5 21.5,29.5 22.5,29.5C 22.2627,33.722 22.596,37.8886 23.5,42C 24.3325,43.7844 25.3325,43.7844 26.5,42C 25.3832,38.9269 25.2165,35.7603 26,32.5C 27.9407,36.0477 29.6074,39.7143 31,43.5C 33.4413,57.1476 35.7746,70.8142 38,84.5C 39.3957,86.5268 41.0624,86.8602 43,85.5C 45.7024,76.5876 50.5357,69.0876 57.5,63C 69.3325,55.9421 80.1658,57.1088 90,66.5C 94.2211,72.2755 97.3878,78.6088 99.5,85.5C 101.625,87.9571 103.459,87.6238 105,84.5C 106.021,74.3943 107.688,64.3943 110,54.5C 112.757,46.1059 116.757,38.4392 122,31.5C 122.212,35.209 121.378,38.709 119.5,42C 120.025,42.6924 120.692,43.1924 121.5,43.5C 123.548,39.6962 125.215,35.6962 126.5,31.5C 127.274,30.2888 128.107,30.2888 129,31.5C 128.191,35.418 127.357,39.418 126.5,43.5C 127.5,43.5 128.5,43.5 129.5,43.5C 129.826,40.6887 130.659,38.022 132,35.5C 132.862,37.087 133.529,38.7536 134,40.5C 135.226,59.7074 132.559,78.3741 126,96.5C 123.737,102.861 120.571,108.694 116.5,114C 108.445,120.434 99.4454,122.101 89.5,119C 86.3333,117.167 83.8333,114.667 82,111.5C 78.7424,104.472 76.4091,97.1391 75,89.5C 73.3333,86.8333 71.6667,86.8333 70,89.5C 68.5909,97.1391 66.2576,104.472 63,111.5C 51.5362,123.419 40.5362,122.752 30,109.5C 18.2034,84.716 13.5367,58.716 16,31.5C 17.1265,35.4648 18.1265,39.4648 19,43.5C 19.6667,44.8333 20.3333,44.8333 21,43.5C 20.7078,38.853 20.2078,34.1863 19.5,29.5 Z"/></g>
<g><path style="opacity:0.915" fill="#000000" d="M 65.5,65.5 C 66.1499,65.8039 66.8165,66.1373 67.5,66.5C 68.6639,72.8072 68.8306,79.1405 68,85.5C 65.9783,86.9909 64.3117,86.6576 63,84.5C 62.3333,79.5 62.3333,74.5 63,69.5C 63.4796,67.867 64.3129,66.5336 65.5,65.5 Z"/></g>
<g><path style="opacity:0.944" fill="#000000" d="M 79.5,67.5 C 80.8221,67.33 81.9887,67.6634 83,68.5C 83.6667,74.5 83.6667,80.5 83,86.5C 81.6667,87.8333 80.3333,87.8333 79,86.5C 78.7286,81.47 78.2286,76.47 77.5,71.5C 77.7517,69.9271 78.4183,68.5938 79.5,67.5 Z"/></g>
<g><path style="opacity:0.848" fill="#000000" d="M 116.5,76.5 C 117.725,77.1522 118.392,78.3189 118.5,80C 117.927,82.0063 117.927,83.8397 118.5,85.5C 116.47,87.607 114.303,89.607 112,91.5C 111.51,92.7932 111.343,94.1266 111.5,95.5C 112.5,95.5 113.5,95.5 114.5,95.5C 114.079,97.9099 112.746,99.7432 110.5,101C 112.255,101.72 113.089,102.887 113,104.5C 111.355,104.693 109.521,104.86 107.5,105C 106.95,106.845 105.95,108.345 104.5,109.5C 103.165,105.663 103.999,102.33 107,99.5C 108,94.8333 109,90.1667 110,85.5C 111.395,84.1854 112.395,84.5188 113,86.5C 115.109,85.9647 115.609,84.9647 114.5,83.5C 115.17,81.1369 115.837,78.8036 116.5,76.5 Z"/></g>
<g><path style="opacity:0.867" fill="#000000" d="M 28.5,78.5 C 29.5862,78.62 30.2528,79.2867 30.5,80.5C 27.3995,85.4322 28.3995,89.4322 33.5,92.5C 34.8767,89.2742 36.5434,88.9409 38.5,91.5C 35.4869,95.4532 36.4869,98.1199 41.5,99.5C 47.0364,98.0895 47.7031,99.2562 43.5,103C 44.448,103.483 45.448,103.649 46.5,103.5C 47.0365,106.665 46.2031,109.331 44,111.5C 42.3831,110.464 42.2164,109.297 43.5,108C 42.1487,106.383 40.482,105.216 38.5,104.5C 38.7093,103.914 39.0426,103.414 39.5,103C 38,101.5 36.5,100 35,98.5C 33.7592,100.421 32.2592,100.754 30.5,99.5C 31.1667,98.5 31.8333,97.5 32.5,96.5C 25.1516,91.7199 23.8183,85.7199 28.5,78.5 Z"/></g>
</svg>
