<?xml version="1.0" encoding="UTF-8"?>
<!DOCTYPE svg PUBLIC "-//W3C//DTD SVG 1.1//EN" "http://www.w3.org/Graphics/SVG/1.1/DTD/svg11.dtd">
<svg xmlns="http://www.w3.org/2000/svg" version="1.1" width="150px" height="150px" style="shape-rendering:geometricPrecision; text-rendering:geometricPrecision; image-rendering:optimizeQuality; fill-rule:evenodd; clip-rule:evenodd" xmlns:xlink="http://www.w3.org/1999/xlink">
<g><path style="opacity:0.927" fill="#000000" d="M 37.5,7.5 C 44.0365,7.43655 49.7032,9.60322 54.5,14C 62.587,21.6777 69.087,30.511 74,40.5C 80.3434,27.156 89.8434,16.656 102.5,9C 113.029,5.96539 121.529,8.79872 128,17.5C 130.185,27.4473 128.518,36.7806 123,45.5C 114.595,56.2365 104.595,65.2365 93,72.5C 94.7735,89.243 93.7735,105.91 90,122.5C 85.5691,136.64 76.4024,141.473 62.5,137C 60.3834,135.269 58.8834,133.102 58,130.5C 53.0269,111.571 52.5269,92.5713 56.5,73.5C 48.251,67.4252 40.4176,60.7586 33,53.5C 26.1285,45.4224 22.2951,36.0891 21.5,25.5C 21.5672,14.7684 26.9005,8.76837 37.5,7.5 Z M 37.5,13.5 C 43.4476,14.0563 48.6142,16.3896 53,20.5C 59.4938,28.1476 64.9938,36.4809 69.5,45.5C 63.5708,49.9575 64.2375,52.2909 71.5,52.5C 71.3398,54.1992 71.5065,55.8659 72,57.5C 75.0083,59.0318 76.8417,58.0318 77.5,54.5C 79.9109,53.912 81.9109,52.7454 83.5,51C 82.0699,49.114 80.4032,47.4473 78.5,46C 84.2839,34.2173 92.2839,24.2173 102.5,16C 109.843,12.3338 116.343,13.5004 122,19.5C 123.428,30.55 120.428,40.2167 113,48.5C 106.221,55.4499 98.7214,61.4499 90.5,66.5C 89.914,66.2907 89.414,65.9574 89,65.5C 87.3161,67.0656 85.3161,68.0656 83,68.5C 79.8424,70.0257 79.6758,71.8591 82.5,74C 83.9003,75.4381 85.567,76.2714 87.5,76.5C 88.5331,91.6401 87.3665,106.64 84,121.5C 81.7138,128.808 76.8805,132.642 69.5,133C 67.6711,132.727 66.1711,131.893 65,130.5C 59.3074,112.442 58.3074,94.1084 62,75.5C 64.5739,76.2965 66.7406,75.4632 68.5,73C 67.9535,72.0754 67.2868,71.2421 66.5,70.5C 52.1186,64.2872 40.6186,54.6205 32,41.5C 27.9858,35.0059 26.6525,28.0059 28,20.5C 30.1213,16.6442 33.2879,14.3108 37.5,13.5 Z"/></g>
<g><path style="opacity:0.898" fill="#fefffe" d="M 104.5,23.5 C 113.222,23.8728 116.555,28.2062 114.5,36.5C 113.5,37.8333 112.5,37.8333 111.5,36.5C 110.194,35.0878 109.36,33.4211 109,31.5C 108,30.8333 107,30.1667 106,29.5C 102.07,31.033 100.404,29.6997 101,25.5C 102.302,24.9152 103.469,24.2485 104.5,23.5 Z"/></g>
</svg>
