<?xml version="1.0" standalone="no"?>
<!DOCTYPE svg PUBLIC "-//W3C//DTD SVG 20010904//EN"
 "http://www.w3.org/TR/2001/REC-SVG-20010904/DTD/svg10.dtd">
<svg version="1.0" xmlns="http://www.w3.org/2000/svg"
 width="150.000000pt" height="150.000000pt" viewBox="0 0 150.000000 150.000000"
 preserveAspectRatio="xMidYMid meet">

<g transform="translate(0.000000,150.000000) scale(0.100000,-0.100000)"
fill="#000000" stroke="none">
<path d="M502 1340 c-60 -13 -104 -40 -121 -76 -10 -20 -17 -88 -22 -219 -23
-565 -23 -555 -4 -680 20 -141 31 -166 82 -191 48 -23 237 -31 382 -15 262 28
429 200 370 378 -29 90 -89 150 -199 201 l-55 26 46 11 c63 16 140 60 181 102
30 31 33 39 33 97 0 50 -7 75 -32 127 -61 121 -143 194 -255 226 -63 17 -342
27 -406 13z m423 -80 c105 -41 202 -168 213 -279 4 -44 2 -50 -28 -75 -81 -67
-207 -105 -353 -106 -80 0 -99 -3 -104 -16 -10 -27 19 -43 82 -44 124 -4 296
-69 348 -133 27 -33 53 -88 60 -125 15 -79 -77 -188 -202 -238 -60 -24 -82
-26 -241 -31 -178 -6 -234 1 -259 31 -6 7 -20 75 -31 150 -20 133 -20 146 -6
404 9 147 17 304 18 349 3 92 11 105 74 129 30 11 78 13 204 11 143 -3 173 -7
225 -27z"/>
<path d="M831 1221 c-16 -10 -8 -41 12 -41 7 0 30 -9 50 -19 37 -19 77 -18 77
1 0 5 -13 23 -29 39 -30 30 -80 39 -110 20z m93 -32 c5 -5 7 -11 4 -14 -5 -6
-68 23 -68 32 0 8 53 -7 64 -18z"/>
<path d="M881 1093 c-34 -21 -60 -27 -120 -31 -71 -4 -101 2 -173 33 -13 5
-18 3 -18 -8 0 -8 19 -24 42 -34 l41 -20 -31 -23 c-18 -13 -32 -27 -32 -32 0
-16 27 -8 66 21 31 22 54 30 112 35 72 6 75 6 108 -24 19 -16 39 -30 44 -30
18 0 10 22 -15 42 -32 25 -31 33 5 55 17 9 30 23 30 30 0 18 -9 16 -59 -14z"/>
<path d="M550 500 c0 -5 14 -16 30 -25 17 -9 30 -18 30 -21 0 -4 -11 -19 -25
-36 -45 -53 -25 -68 23 -18 29 30 30 30 136 30 107 0 107 0 133 -30 13 -16 31
-30 39 -30 21 0 17 10 -13 43 l-28 29 23 15 c21 15 31 43 15 43 -5 0 -21 -9
-38 -20 -25 -16 -47 -20 -128 -20 -90 0 -101 2 -131 25 -33 25 -66 33 -66 15z"/>
</g>
</svg>
