<?xml version="1.0" standalone="no"?>
<!DOCTYPE svg PUBLIC "-//W3C//DTD SVG 20010904//EN"
 "http://www.w3.org/TR/2001/REC-SVG-20010904/DTD/svg10.dtd">
<svg version="1.0" xmlns="http://www.w3.org/2000/svg"
 width="150.000000pt" height="150.000000pt" viewBox="0 0 150.000000 150.000000"
 preserveAspectRatio="xMidYMid meet">

<g transform="translate(0.000000,150.000000) scale(0.100000,-0.100000)"
fill="#000000" stroke="none">
<path d="M613 1337 c-62 -18 -138 -47 -170 -63 -51 -26 -63 -39 -110 -114 -80
-130 -111 -220 -115 -332 -7 -216 56 -433 150 -516 96 -84 130 -111 170 -131
53 -27 189 -46 332 -46 101 0 108 1 187 39 45 21 93 50 107 65 85 89 117 304
63 433 -33 78 -112 104 -340 113 -131 5 -155 -3 -183 -56 -20 -40 -19 -207 1
-237 15 -20 15 -21 -2 -15 -18 7 -83 43 -83 47 0 1 -9 26 -20 56 -36 97 -20
274 33 377 27 52 39 56 113 44 36 -7 76 -18 88 -26 50 -33 163 -66 241 -72
l81 -6 36 37 c19 20 43 57 53 82 15 40 16 53 5 105 -7 32 -20 64 -29 72 -43
37 -220 139 -265 152 -28 9 -91 18 -141 20 -81 5 -102 2 -202 -28z m283 -38
c61 -11 138 -50 234 -117 81 -56 90 -119 28 -197 -36 -46 -140 -32 -286 37
-86 40 -193 56 -226 34 -67 -44 -115 -164 -123 -312 -5 -76 -2 -103 17 -165
31 -99 40 -111 114 -148 110 -56 278 -54 304 5 17 35 5 70 -26 83 -15 5 -59
11 -99 13 -40 2 -75 6 -78 9 -3 4 -7 36 -8 71 -3 95 2 98 137 98 131 0 239
-20 271 -50 55 -52 58 -207 5 -318 -22 -48 -38 -66 -74 -87 -118 -69 -195 -80
-376 -53 -129 19 -168 36 -258 116 -60 53 -75 74 -100 135 -74 178 -94 366
-53 498 12 37 28 72 36 79 8 7 15 18 15 24 0 19 42 90 62 104 10 7 16 18 13
23 -4 5 -1 9 5 9 7 0 25 11 41 24 16 14 75 39 131 56 57 18 108 33 113 35 23
8 126 4 181 -6z m-63 -836 c-18 -2 -48 -2 -65 0 -18 2 -4 4 32 4 36 0 50 -2
33 -4z"/>
<path d="M846 1238 c-9 -12 -16 -33 -16 -45 0 -21 4 -23 55 -23 30 0 78 -9
105 -19 44 -17 52 -17 57 -5 8 22 -34 63 -92 90 -63 30 -90 30 -109 2z m89
-22 c49 -21 43 -28 -17 -20 -60 8 -62 9 -53 23 9 15 29 14 70 -3z"/>
</g>
</svg>
