<?xml version="1.0" standalone="no"?>
<!DOCTYPE svg PUBLIC "-//W3C//DTD SVG 20010904//EN"
 "http://www.w3.org/TR/2001/REC-SVG-20010904/DTD/svg10.dtd">
<svg version="1.0" xmlns="http://www.w3.org/2000/svg"
 width="150.000000pt" height="150.000000pt" viewBox="0 0 150.000000 150.000000"
 preserveAspectRatio="xMidYMid meet">

<g transform="translate(0.000000,150.000000) scale(0.100000,-0.100000)"
fill="#000000" stroke="none">
<path d="M478 1379 c-77 -10 -165 -41 -203 -71 -34 -26 -64 -91 -65 -136 0
-38 28 -98 62 -129 48 -45 113 -65 227 -68 68 -2 105 -6 104 -13 -2 -6 -8 -64
-14 -128 -8 -89 -8 -139 2 -204 6 -47 11 -87 10 -89 0 -2 -48 -5 -105 -7 -148
-3 -222 -38 -267 -126 -24 -47 -24 -91 0 -144 49 -108 182 -144 531 -144 347
0 465 32 521 142 37 73 18 152 -53 212 -52 45 -109 59 -235 60 l-104 0 6 26
c26 100 38 191 38 295 l1 120 86 2 c108 2 159 17 208 59 71 60 90 139 53 212
-57 112 -176 143 -536 141 -110 -1 -230 -5 -267 -10z m566 -59 c85 -14 138
-38 169 -78 51 -66 25 -152 -57 -191 -34 -17 -62 -21 -146 -21 -90 0 -106 3
-125 20 -13 12 -29 18 -38 14 -22 -8 -21 -17 6 -67 20 -38 22 -55 21 -167 -2
-96 -7 -144 -24 -205 -13 -44 -23 -93 -24 -110 l-1 -30 145 -3 c165 -3 214
-18 250 -76 60 -98 -18 -192 -179 -217 -47 -7 -165 -9 -330 -7 -292 6 -330 13
-399 76 -35 33 -42 45 -42 77 0 49 39 101 94 126 33 15 66 19 163 19 151 0
152 0 127 122 -19 94 -14 257 11 366 8 35 13 68 9 73 -7 12 -41 12 -49 -1 -4
-6 -52 -10 -113 -10 -124 0 -173 17 -216 72 -71 93 4 190 169 217 71 12 508
13 579 1z"/>
<path d="M404 1270 c-12 -4 -31 -21 -43 -37 -38 -47 -10 -122 56 -149 44 -19
75 -10 71 19 -2 14 -14 24 -37 31 -63 18 -64 86 -2 86 36 0 66 23 58 44 -7 18
-66 21 -103 6z"/>
<path d="M559 1260 c-23 -19 -23 -21 -6 -34 11 -8 26 -12 34 -9 15 6 33 -12
33 -35 0 -6 -11 -22 -25 -34 -44 -38 -25 -80 26 -55 58 30 71 106 28 162 -25
30 -58 32 -90 5z"/>
<path d="M835 1245 c-33 -32 -33 -78 0 -111 14 -14 33 -24 43 -22 22 4 28 46
8 54 -22 8 -20 23 5 50 45 47 -10 76 -56 29z"/>
<path d="M1019 1254 c-11 -14 -10 -19 9 -34 24 -20 29 -59 11 -77 -16 -16 -3
-43 20 -43 48 0 68 95 30 144 -23 30 -50 34 -70 10z"/>
<path d="M953 1213 c-21 -8 -15 -43 6 -43 11 0 23 5 27 11 8 14 -17 38 -33 32z"/>
<path d="M484 1185 c-8 -19 12 -36 33 -28 19 7 12 37 -10 41 -9 2 -20 -4 -23
-13z"/>
<path d="M387 363 c-16 -16 -2 -40 41 -72 83 -61 131 -74 277 -75 119 -1 137
1 212 28 88 31 147 74 137 100 -8 21 -36 20 -65 -3 -13 -10 -51 -28 -84 -40
-162 -58 -339 -40 -454 44 -34 25 -52 30 -64 18z"/>
</g>
</svg>
