<?xml version="1.0" encoding="UTF-8"?>
<!DOCTYPE svg PUBLIC "-//W3C//DTD SVG 1.1//EN" "http://www.w3.org/Graphics/SVG/1.1/DTD/svg11.dtd">
<svg xmlns="http://www.w3.org/2000/svg" version="1.1" width="150px" height="150px" style="shape-rendering:geometricPrecision; text-rendering:geometricPrecision; image-rendering:optimizeQuality; fill-rule:evenodd; clip-rule:evenodd" xmlns:xlink="http://www.w3.org/1999/xlink">
<g><path style="opacity:0.916" fill="#000000" d="M 42.5,6.5 C 52.8739,5.60333 60.7073,9.60333 66,18.5C 67.978,22.7766 69.6447,27.11 71,31.5C 76.5,22 84,14.5 93.5,9C 105.627,4.65831 114.46,8.15831 120,19.5C 126.406,46.5164 116.573,65.0164 90.5,75C 103.021,84.8489 112.521,97.0156 119,111.5C 121.321,119.673 120.988,127.673 118,135.5C 114.283,139.275 109.783,141.275 104.5,141.5C 93.3096,141.064 84.4762,136.398 78,127.5C 75.3333,122.833 72.6667,118.167 70,113.5C 69.6504,124.715 64.8171,133.215 55.5,139C 39.1575,144.092 29.9909,138.258 28,121.5C 27.1316,95.1468 27.465,68.8134 29,42.5C 29.9244,33.4379 31.2577,24.4379 33,15.5C 34.775,10.888 37.9417,7.88799 42.5,6.5 Z M 43.5,12.5 C 50.931,11.9654 56.431,14.9654 60,21.5C 63.7756,30.0736 65.4422,39.0736 65,48.5C 66.2587,52.2233 68.5921,53.2233 72,51.5C 73.7645,35.4065 81.5978,23.2399 95.5,15C 105.418,11.3764 111.918,14.5431 115,24.5C 115.667,30.5 115.667,36.5 115,42.5C 109.303,57.1924 98.8028,66.6924 83.5,71C 82.8333,72 82.1667,73 81.5,74C 89.6424,81.8104 97.4758,89.977 105,98.5C 109.653,105.968 112.82,113.968 114.5,122.5C 110.076,120.455 107.91,121.788 108,126.5C 109.896,127.68 111.396,129.18 112.5,131C 112.387,132.28 111.72,133.113 110.5,133.5C 109.106,130.804 107.273,128.47 105,126.5C 103.378,126.954 102.212,127.954 101.5,129.5C 104.795,135.891 103.128,137.224 96.5,133.5C 97.373,131.587 98.373,129.753 99.5,128C 98.6667,126.5 97.5,125.333 96,124.5C 93.3103,126.193 91.3103,128.527 90,131.5C 82.0054,121.518 75.0054,110.851 69,99.5C 65.7468,96.5064 63.2468,97.0064 61.5,101C 62.6051,107.128 62.7718,113.294 62,119.5C 61.6237,122.01 60.7904,124.343 59.5,126.5C 55.5291,122.248 53.3625,122.914 53,128.5C 56.303,130.397 56.1364,132.064 52.5,133.5C 52.0244,130.881 50.6911,128.881 48.5,127.5C 47.8333,127.833 47.1667,128.167 46.5,128.5C 43.1049,123.117 39.9382,123.45 37,129.5C 35.1891,125.024 34.1891,120.357 34,115.5C 32.2713,82.9818 33.938,50.6484 39,18.5C 39.5985,15.7458 41.0985,13.7458 43.5,12.5 Z M 100.5,18.5 C 106.466,18.6345 109.633,21.6345 110,27.5C 106.78,24.3523 103.614,21.3523 100.5,18.5 Z M 56.5,79.5 C 62.1002,80.6231 62.7668,82.9565 58.5,86.5C 54.2191,85.0367 53.5525,82.7034 56.5,79.5 Z"/></g>
<g><path style="opacity:1" fill="#000000" d="M 106.5,17.5 C 106.5,18.1667 106.833,18.5 107.5,18.5C 109.739,20.4766 111.073,22.9766 111.5,26C 111.612,27.6624 110.946,28.8291 109.5,29.5C 106.449,25.1403 102.449,21.9737 97.5,20C 99.9225,16.7748 102.922,15.9415 106.5,17.5 Z M 100.5,18.5 C 103.614,21.3523 106.78,24.3523 110,27.5C 109.633,21.6345 106.466,18.6345 100.5,18.5 Z"/></g>
<g><path style="opacity:0.008" fill="#000000" d="M 106.5,17.5 C 106.56,16.9569 106.893,16.6236 107.5,16.5C 108.773,17.2565 108.773,17.9232 107.5,18.5C 106.833,18.5 106.5,18.1667 106.5,17.5 Z"/></g>
<g><path style="opacity:0.877" fill="#000000" d="M 45.5,58.5 C 47.5273,58.3379 49.5273,58.5045 51.5,59C 52.9255,60.7141 52.5922,62.0475 50.5,63C 48.1788,63.8365 45.8454,64.1699 43.5,64C 42.0804,61.4264 42.747,59.593 45.5,58.5 Z"/></g>
<g><path style="opacity:0.871" fill="#000000" d="M 62.5,58.5 C 64.9267,58.523 67.26,59.023 69.5,60C 70.3802,61.3561 70.7135,62.8561 70.5,64.5C 67.1262,64.3256 63.7928,63.8256 60.5,63C 60.0426,62.586 59.7093,62.086 59.5,61.5C 60.3398,60.265 61.3398,59.265 62.5,58.5 Z"/></g>
<g><path style="opacity:0.832" fill="#000000" d="M 49.5,66.5 C 53.1612,66.3501 54.1612,67.8501 52.5,71C 51.2068,71.49 49.8734,71.6567 48.5,71.5C 48.366,69.7085 48.6993,68.0418 49.5,66.5 Z"/></g>
<g><path style="opacity:0.804" fill="#000000" d="M 63.5,66.5 C 67.2064,68.0324 67.373,70.0324 64,72.5C 60.8981,70.6627 60.7314,68.6627 63.5,66.5 Z"/></g>
<g><path style="opacity:0.809" fill="#000000" d="M 55.5,74.5 C 63.5416,74.7002 67.0416,78.7002 66,86.5C 60.6323,91.7318 55.299,91.7318 50,86.5C 48.2918,80.9145 50.1251,76.9145 55.5,74.5 Z M 56.5,79.5 C 53.5525,82.7034 54.2191,85.0367 58.5,86.5C 62.7668,82.9565 62.1002,80.6231 56.5,79.5 Z"/></g>
</svg>
