<?xml version="1.0" standalone="no"?>
<!DOCTYPE svg PUBLIC "-//W3C//DTD SVG 20010904//EN"
 "http://www.w3.org/TR/2001/REC-SVG-20010904/DTD/svg10.dtd">
<svg version="1.0" xmlns="http://www.w3.org/2000/svg"
 width="150.000000pt" height="150.000000pt" viewBox="0 0 150.000000 150.000000"
 preserveAspectRatio="xMidYMid meet">

<g transform="translate(0.000000,150.000000) scale(0.100000,-0.100000)"
fill="#000000" stroke="none">
<path d="M498 1383 c-109 -3 -119 -5 -132 -26 -20 -29 -41 -801 -29 -1024 12
-209 6 -203 204 -203 119 0 149 3 159 15 12 15 11 52 -6 131 l-6 32 54 -52
c30 -28 79 -68 109 -88 l54 -37 158 -3 c187 -3 182 -7 192 109 l8 75 -54 54
c-30 30 -80 74 -113 97 -182 130 -256 190 -275 221 -36 58 -40 51 119 221 196
208 200 213 200 253 0 26 -15 66 -47 127 -39 73 -53 91 -73 93 -27 3 -175 -79
-221 -124 -14 -13 -29 -24 -34 -24 -5 0 -22 -12 -37 -27 l-28 -27 0 95 c0 105
-7 120 -54 117 -17 -1 -84 -4 -148 -5z m143 -90 c-4 -21 -4 -74 -1 -118 6 -89
19 -103 64 -68 136 104 219 164 258 187 l46 27 41 -81 c34 -69 39 -84 28 -101
-6 -10 -15 -19 -18 -19 -4 0 -28 -26 -54 -57 -26 -32 -93 -106 -150 -165 -115
-117 -129 -146 -102 -211 9 -19 13 -38 11 -40 -5 -5 44 -45 186 -148 149 -109
187 -139 205 -159 17 -19 16 -19 -19 -13 -32 5 -36 3 -36 -15 0 -12 9 -27 20
-35 l21 -14 -21 -6 c-37 -10 -21 -41 28 -51 23 -6 42 -13 42 -16 0 -4 -62 -4
-137 -2 l-138 5 -72 54 c-46 34 -94 84 -135 138 -66 87 -78 98 -103 89 -21 -8
-19 -23 15 -149 38 -140 38 -145 0 -145 -28 0 -30 2 -30 39 0 52 -8 71 -30 71
-22 0 -30 -19 -30 -71 0 -35 -3 -39 -25 -39 -22 0 -25 4 -25 33 0 41 -21 73
-44 64 -11 -5 -16 -19 -16 -49 0 -34 -2 -39 -12 -29 -10 9 -13 110 -12 439 0
235 4 484 8 554 l8 127 101 4 c56 1 109 4 118 5 13 2 15 -5 10 -35z"/>
<path d="M483 1199 c-16 -16 -5 -39 19 -39 14 0 19 6 16 22 -4 25 -19 33 -35
17z"/>
<path d="M870 1161 c0 -27 19 -36 37 -18 18 18 9 37 -18 37 -12 0 -19 -7 -19
-19z"/>
<path d="M539 970 c-44 -23 -64 -66 -56 -121 8 -58 30 -79 84 -79 24 0 53 5
64 10 41 23 64 114 39 161 -11 20 -60 49 -82 49 -7 -1 -29 -9 -49 -20z m65
-46 c17 -6 22 -59 8 -80 -9 -15 -43 -21 -59 -11 -21 13 -15 64 9 81 26 19 22
18 42 10z"/>
</g>
</svg>
