<?xml version="1.0" encoding="UTF-8"?>
<!DOCTYPE svg PUBLIC "-//W3C//DTD SVG 1.1//EN" "http://www.w3.org/Graphics/SVG/1.1/DTD/svg11.dtd">
<svg xmlns="http://www.w3.org/2000/svg" version="1.1" width="150px" height="150px" style="shape-rendering:geometricPrecision; text-rendering:geometricPrecision; image-rendering:optimizeQuality; fill-rule:evenodd; clip-rule:evenodd" xmlns:xlink="http://www.w3.org/1999/xlink">
<g><path style="opacity:0.943" fill="#000000" d="M 56.5,9.5 C 75.0183,8.50273 93.0183,11.0027 110.5,17C 120.858,23.3644 125.524,32.6978 124.5,45C 122.345,61.9931 113.011,72.6598 96.5,77C 109.323,86.1575 118.823,97.9909 125,112.5C 126.697,131.791 117.864,139.625 98.5,136C 84.5305,130.365 74.0305,120.865 67,107.5C 66.0222,116.424 63.3555,124.757 59,132.5C 47.7209,141.105 38.0543,139.438 30,127.5C 29.1779,125.212 28.5112,122.878 28,120.5C 26.4081,89.8404 26.4081,59.1737 28,28.5C 29.0262,24.2783 31.1929,20.7783 34.5,18C 41.3961,13.7062 48.7294,10.8729 56.5,9.5 Z M 56.5,16.5 C 73.6275,15.3908 90.2942,17.5574 106.5,23C 109.266,24.4669 111.766,26.3002 114,28.5C 121.269,44.0705 118.103,56.9038 104.5,67C 98.3634,68.6011 92.3634,70.6011 86.5,73C 84.6499,74.8449 84.3166,76.8449 85.5,79C 100.447,86.6138 111.28,98.1138 118,113.5C 119.195,118.6 118.362,123.267 115.5,127.5C 107.035,130.74 99.0347,129.906 91.5,125C 81.6745,118.505 74.8412,109.671 71,98.5C 68.4654,91.023 66.7988,83.3563 66,75.5C 63.7293,69.597 61.2293,69.2637 58.5,74.5C 61.4433,91.2295 60.61,107.896 56,124.5C 51.1148,132.39 45.1148,133.39 38,127.5C 36.7246,125.283 35.7246,122.949 35,120.5C 33.3632,90.1734 33.3632,59.84 35,29.5C 35.6898,26.804 37.1898,24.6374 39.5,23C 44.8726,19.6301 50.5392,17.4635 56.5,16.5 Z"/></g>
<g><path style="opacity:0.93" fill="#000000" d="M 70.5,31.5 C 72.0174,31.5106 73.1841,32.1772 74,33.5C 74.2543,36.195 74.421,38.695 74.5,41C 77.8333,41.3333 81.1667,41.6667 84.5,42C 86.2826,43.0665 86.7826,44.5665 86,46.5C 84.3523,48.0284 82.3523,48.6951 80,48.5C 76.1731,47.761 72.3397,47.5943 68.5,48C 66.2417,49.9296 63.7417,51.4296 61,52.5C 59.5,51.6667 58.3333,50.5 57.5,49C 59.4301,45.9474 61.9301,43.4474 65,41.5C 66.5419,37.9139 68.3753,34.5806 70.5,31.5 Z"/></g>
</svg>
